<?xml version="1.0" encoding="UTF-8"?>
<!DOCTYPE svg PUBLIC "-//W3C//DTD SVG 1.1//EN" "http://www.w3.org/Graphics/SVG/1.1/DTD/svg11.dtd">
<!-- Creator: CorelDRAW 2018 (64-Bit) -->
<svg xmlns="http://www.w3.org/2000/svg" xml:space="preserve" width="57.7519mm" height="35.741mm" version="1.1" style="shape-rendering:geometricPrecision; text-rendering:geometricPrecision; image-rendering:optimizeQuality; fill-rule:evenodd; clip-rule:evenodd"
viewBox="0 0 5863.82 3628.95"
 xmlns:xlink="http://www.w3.org/1999/xlink">
 <defs>
  <style type="text/css">
   <![CDATA[
    .fil0 {fill:#E31E24}
    .fil1 {fill:#E31E24;fill-rule:nonzero}
   ]]>
  </style>
 </defs>
 <g id="Layer_x0020_1">
  <metadata id="CorelCorpID_0Corel-Layer"/>
  <path class="fil0" d="M364.75 1146.36l0 1655.3 336.67 0 0 -1991.99 -701.42 0.01 0 336.68 364.75 0zm476.94 -505.04l-561.11 0 0 -336.67 897.79 0.01 0 2497.02 -336.68 0 0 -2160.36zm5022.11 1767.59l0 336.68 -3198.43 0c-679.94,0 -1234.49,-554.55 -1234.49,-1234.49 0,-679.95 554.55,-1234.49 1234.49,-1234.49 670.53,-0.01 1219.1,539.38 1234.12,1206.41l-336.81 0c-14.93,-481.58 -412.22,-869.74 -897.31,-869.74 -494.5,-0.01 -897.81,403.31 -897.81,897.81 0,494.49 403.31,897.81 897.81,897.81 1066.11,0 2132.31,0 3198.43,0zm-3198.43 -476.96c-231.8,0 -420.85,-189.05 -420.85,-420.85 0,-231.8 189.05,-420.85 420.85,-420.85 222.37,-0.01 405.35,174 419.88,392.78l337.06 0c-14.85,-404.29 -349.13,-729.46 -756.94,-729.46 -417.24,-0.01 -757.53,340.29 -757.53,757.53 0,417.23 340.29,757.53 757.53,757.53 1066.1,-0.01 2132.28,-0.02 3198.44,-0.02l0.01 -336.67c-1066.16,0 -2132.3,0.01 -3198.45,0.01z"/>
  <path class="fil0" d="M4794.43 708.93l-0.09 -447.36 190.2 0c47.75,0 82.55,4.07 104.16,12.05 21.63,7.96 39.07,22.33 52.01,42.88 13.04,20.54 19.58,44.13 19.58,70.52 0.01,33.48 -9.92,61.3 -29.59,83.1 -19.66,21.87 -49.25,35.7 -88.5,41.37 19.48,11.33 35.69,23.92 48.36,37.58 12.68,13.62 29.86,37.9 51.48,72.63l54.57 87.25 -107.99 0 -65.36 -97.36c-23.13,-34.72 -39.08,-56.68 -47.59,-65.72 -8.51,-9.04 -17.63,-15.22 -27.2,-18.59 -9.56,-3.38 -24.71,-5.05 -45.45,-5.05l-18.34 0 0 186.72 -90.26 0zm90.35 -258.23l66.8 0.09c43.25,0 70.34,-1.86 81.17,-5.49 10.8,-3.63 19.31,-10.01 25.32,-18.87 6.02,-8.96 9.12,-20.21 9.12,-33.66 0.01,-15.06 -4.07,-27.19 -12.03,-36.4 -7.98,-9.22 -19.4,-15.15 -34.02,-17.64 -7.27,-0.97 -29.33,-1.5 -65.92,-1.5l-70.52 -0.01 0.08 113.48zm78.52 -319.96c198.04,0 359.56,161.53 359.56,359.56 0,198.03 -161.53,359.56 -359.56,359.56 -198.02,0 -359.56,-161.53 -359.56,-359.56 0,-198.04 161.53,-359.55 359.56,-359.56zm0 -130.74c270.05,0 490.3,220.27 490.3,490.3 0,270.03 -220.26,490.31 -490.3,490.31 -270.03,-0.01 -490.3,-220.27 -490.3,-490.31 0.01,-270.03 220.26,-490.3 490.3,-490.3z"/>
  <path class="fil1" d="M547.06 3610.57l-108.44 0 0 -312.42 -87.59 40.43 0 -105.98 100.46 -50.85 95.57 0 0 428.82zm278.23 8.58c-68.61,0 -125.58,-20.83 -170.91,-62.48 -45.34,-41.66 -68,-95.16 -68,-160.51 0,-65.35 22.46,-118.85 67.39,-160.5 45.33,-41.66 102.31,-62.48 170.91,-62.48 40.84,0 77.8,8.16 110.88,24.5l0 108.43c-33.49,-20.82 -70.04,-31.24 -109.65,-31.24 -35.94,0 -65.96,11.43 -90.05,34.31 -24.1,22.87 -36.15,51.86 -36.15,86.98 0,35.94 12.25,65.14 36.76,87.6 24.91,22.46 56.15,33.69 93.73,33.69 44.92,0 82.5,-11.43 112.71,-34.3l0 109.04c-35.12,17.97 -74.32,26.96 -117.62,26.96zm246.98 -207.68c-12.25,12.66 -27.35,19 -45.33,19 -17.97,0 -33.28,-6.34 -45.94,-19 -12.26,-12.65 -18.38,-27.97 -18.38,-45.94 0,-17.96 6.12,-33.08 18.38,-45.33 12.66,-12.66 27.97,-19 45.94,-19 17.97,0 33.08,6.34 45.33,19 12.66,12.25 19,27.36 19,45.33 0,17.97 -6.34,33.29 -19,45.94zm0 188.68c-12.25,12.66 -27.35,19 -45.33,19 -17.97,0 -33.28,-6.34 -45.94,-19 -12.26,-12.66 -18.38,-27.97 -18.38,-45.94 0,-17.97 6.12,-33.08 18.38,-45.33 12.66,-12.66 27.97,-19 45.94,-19 17.97,0 33.08,6.34 45.33,19 12.66,12.25 19,27.35 19,45.33 0,17.97 -6.34,33.28 -19,45.94zm507.97 28.8l-110.89 0 0 -47.78c-63.7,-2.86 -113.74,-22.88 -150.09,-60.04 -35.93,-37.16 -53.9,-80.46 -53.9,-129.87 0,-49.82 17.97,-92.9 53.9,-129.25 36.35,-37.58 86.39,-57.79 150.09,-60.65l0 -37.98 110.89 0 0 37.98c63.7,2.85 113.74,23.07 150.09,60.65 35.93,36.35 53.9,79.43 53.9,129.25 0,49.42 -17.97,92.71 -53.9,129.87 -36.35,37.16 -86.39,57.17 -150.09,60.04l0 47.78zm-110.89 -145.79l0 -183.79c-27.36,0.82 -49.21,9.39 -65.54,25.73 -16.34,16.34 -24.51,38.39 -24.51,66.16 0,27.78 8.17,49.73 24.51,65.86 16.33,16.13 38.18,24.82 65.54,26.04zm110.89 -183.79l0 183.79c27.77,-1.23 49.72,-9.91 65.86,-26.04 16.12,-16.12 24.2,-38.08 24.2,-65.86 0,-27.77 -8.17,-49.82 -24.51,-66.16 -16.33,-16.34 -38.18,-24.91 -65.54,-25.73zm353.57 311.2l-110.27 0 0 -428.82 191.14 0c48.19,0 86.17,12.46 113.94,37.37 28.18,24.91 42.27,57.17 42.27,96.78 0,39.62 -14.09,72.09 -42.27,97.4 -27.77,24.92 -65.75,37.37 -113.94,37.37l-80.87 0 0 159.89zm0 -335.7l0 85.15 72.9 0c15.93,0 28.69,-3.78 38.29,-11.33 9.6,-7.55 14.4,-18.07 14.4,-31.55 0,-13.47 -4.7,-23.89 -14.09,-31.24 -9.39,-7.35 -22.26,-11.03 -38.59,-11.03l-72.9 0zm295.39 335.7l-116.4 0 180.11 -431.27 105.97 0 180.11 431.27 -118.24 0 -36.15 -90.66 -159.27 0 -36.15 90.66zm115.78 -293.44l-44.72 114.55 89.43 0 -44.72 -114.55zm362.15 293.44l-110.27 0 0 -428.82 110.27 0 0 152.54 161.73 0 0 -152.54 110.27 0 0 428.82 -110.27 0 0 -178.26 -161.73 0 0 178.26zm667.24 0l-110.27 0 0 -154.99c-23.69,7.77 -51.05,11.65 -82.09,11.65 -51.46,0 -91.38,-12.46 -119.76,-37.37 -28.39,-24.91 -42.57,-60.23 -42.57,-105.97l0 -142.13 110.27 0 0 126.2c0,39.62 21.65,59.42 64.93,59.42 27.77,0 50.85,-4.89 69.23,-14.7l0 -170.91 110.27 0 0 428.82zm134.27 0l-116.4 0 180.11 -431.27 105.97 0 180.11 431.27 -118.24 0 -36.15 -90.66 -159.27 0 -36.15 90.66zm115.78 -293.44l-44.72 114.55 89.43 0 -44.72 -114.55zm344.4 293.44l-92.51 0 0 -428.82 110.27 0 0 241.98 177.05 -241.98 95.56 0 0 428.82 -110.27 0 0 -244.42 -180.1 244.42zm-17.16 -558.69l74.13 0c0.41,11.85 4.18,21.24 11.33,28.19 7.15,6.94 17.05,10.41 29.71,10.41 12.66,0 22.57,-3.46 29.71,-10.41 7.15,-6.94 10.93,-16.34 11.34,-28.19l75.35 0c-0.82,33.9 -12.05,60.24 -33.7,79.02 -21.64,19.2 -49,28.8 -82.08,28.8 -32.67,0 -60.24,-9.6 -82.71,-28.8 -21.23,-19.19 -32.26,-45.53 -33.08,-79.02zm498.78 567.27c-65.75,0 -119.25,-14.09 -160.51,-42.27l0 -105.37c19.2,14.7 41.96,26.24 68.31,34.61 26.34,8.38 51.97,12.56 76.88,12.56 27.77,0 49.41,-4.39 64.93,-13.17 15.51,-8.78 23.28,-20.94 23.28,-36.45 0,-25.73 -25.53,-38.59 -76.58,-38.59l-54.52 0 0 -87.6 67.39 0c36.76,0 55.13,-11.84 55.13,-35.53 0,-11.03 -5.82,-19.61 -17.46,-25.73 -11.64,-6.13 -28.28,-9.19 -49.92,-9.19 -51.05,0 -98.42,11.43 -142.12,34.3l0 -94.95c46.96,-25.73 96.17,-38.59 147.63,-38.59 52.28,0 93.93,12.04 124.97,36.14 31.04,23.69 46.56,54.12 46.56,91.28 0,18.38 -4.9,34.71 -14.7,49.01 -9.81,14.3 -22.26,25.32 -37.37,33.08 43.29,20.82 64.94,53.9 64.94,99.24 0,38.8 -16.96,71.47 -50.85,98.01 -33.49,26.15 -78.82,39.21 -136,39.21zm312.53 -8.58l-92.51 0 0 -428.82 110.27 0 0 241.98 177.05 -241.98 95.56 0 0 428.82 -110.27 0 0 -244.42 -180.1 244.42zm453.43 0l-110.27 0 0 -428.82 110.27 0 0 152.54 161.73 0 0 -152.54 110.27 0 0 428.82 -110.27 0 0 -178.26 -161.73 0 0 178.26zm435.06 0l-110.27 0 0 -428.82 316.72 0 0 96.79 -206.45 0 0 332.03z"/>
 </g>
</svg>
