<svg id="Layer_1" data-name="Layer 1" xmlns="http://www.w3.org/2000/svg" viewBox="0 0 550 500"><defs><style>.cls-1{fill:#24071d;}.cls-2{fill:#00487c;}.cls-3{fill:#3c729a;}.cls-4{fill:#fff;}.cls-5{fill:#fcecde;}.cls-6{fill:#0495fd;}.cls-7{fill:#680000;opacity:0.26;}</style></defs><path class="cls-1" d="M425.91,268.55a.76.76,0,0,1-.75-.75c0-2.65-.06-5.33-.18-8a.74.74,0,0,1,.72-.78.72.72,0,0,1,.78.71c.12,2.66.18,5.36.18,8A.75.75,0,0,1,425.91,268.55ZM81.46,263.13h0a.75.75,0,0,1-.73-.77c.08-2.67.23-5.37.43-8a.73.73,0,0,1,.81-.69.75.75,0,0,1,.69.8c-.21,2.64-.35,5.31-.43,7.95A.75.75,0,0,1,81.46,263.13Zm343.72-10.55a.77.77,0,0,1-.75-.68c-.24-2.64-.54-5.3-.91-7.91a.75.75,0,0,1,1.49-.21c.36,2.63.67,5.32.92,8a.74.74,0,0,1-.68.81ZM82.69,247.19h-.1a.74.74,0,0,1-.65-.83c.33-2.65.72-5.32,1.17-7.95a.75.75,0,0,1,.87-.61.74.74,0,0,1,.61.86c-.45,2.61-.84,5.26-1.16,7.88A.75.75,0,0,1,82.69,247.19ZM423,236.74a.76.76,0,0,1-.74-.61c-.48-2.6-1-5.22-1.64-7.79a.75.75,0,0,1,.56-.9.74.74,0,0,1,.9.55c.61,2.6,1.17,5.24,1.66,7.86a.76.76,0,0,1-.6.88Zm-337.6-5.31-.16,0a.75.75,0,0,1-.57-.89c.57-2.61,1.21-5.23,1.91-7.81a.75.75,0,0,1,1.45.39c-.69,2.55-1.33,5.15-1.89,7.74A.76.76,0,0,1,85.38,231.43Zm333.94-10.25a.75.75,0,0,1-.72-.55c-.73-2.54-1.52-5.09-2.37-7.6a.75.75,0,1,1,1.42-.48c.86,2.53,1.66,5.11,2.39,7.67a.76.76,0,0,1-.52.93ZM89.54,216a.62.62,0,0,1-.23,0,.74.74,0,0,1-.48-.94c.81-2.54,1.69-5.1,2.62-7.59a.75.75,0,0,1,1.41.52c-.92,2.48-1.8,5-2.61,7.53A.74.74,0,0,1,89.54,216Zm324.67-10a.75.75,0,0,1-.7-.47c-1-2.47-2-4.94-3.07-7.37a.75.75,0,0,1,.38-1,.76.76,0,0,1,1,.38c1.08,2.45,2.13,4.95,3.1,7.43a.75.75,0,0,1-.43,1A.65.65,0,0,1,414.21,206Zm-319.1-5a.72.72,0,0,1-.29-.06.75.75,0,0,1-.4-1c1-2.45,2.16-4.91,3.32-7.3a.75.75,0,1,1,1.35.65c-1.15,2.37-2.25,4.81-3.29,7.24A.75.75,0,0,1,95.11,201Zm312.59-9.65A.73.73,0,0,1,407,191c-1.19-2.36-2.45-4.73-3.75-7a.75.75,0,0,1,1.31-.73c1.31,2.32,2.58,4.71,3.78,7.1a.76.76,0,0,1-.34,1A.8.8,0,0,1,407.7,191.37Zm-305.65-4.72a.8.8,0,0,1-.36-.09.75.75,0,0,1-.3-1c1.27-2.34,2.61-4.68,4-7a.75.75,0,0,1,1-.25.74.74,0,0,1,.26,1c-1.37,2.26-2.69,4.59-4,6.91A.75.75,0,0,1,102.05,186.65Zm297.8-9.24a.74.74,0,0,1-.63-.36c-1.4-2.24-2.88-4.48-4.38-6.66a.75.75,0,1,1,1.23-.85c1.52,2.2,3,4.46,4.42,6.72a.75.75,0,0,1-.24,1A.72.72,0,0,1,399.85,177.41ZM110.3,173a.8.8,0,0,1-.42-.13.75.75,0,0,1-.21-1c1.48-2.21,3-4.42,4.61-6.57a.76.76,0,0,1,1-.16.75.75,0,0,1,.16,1c-1.57,2.13-3.11,4.32-4.57,6.51A.75.75,0,0,1,110.3,173Zm280.46-8.74a.76.76,0,0,1-.6-.29c-1.6-2.1-3.28-4.2-5-6.23a.75.75,0,0,1,1.14-1c1.72,2.05,3.41,4.16,5,6.28a.75.75,0,0,1-.14,1.05A.78.78,0,0,1,390.76,164.24Zm-271-4.13a.77.77,0,0,1-.48-.16.76.76,0,0,1-.11-1.06c1.68-2.07,3.43-4.12,5.2-6.12a.76.76,0,0,1,1.06-.06.75.75,0,0,1,.06,1.06c-1.76,2-3.49,4-5.15,6.06A.74.74,0,0,1,119.78,160.11ZM380.48,152a.75.75,0,0,1-.55-.24c-1.79-2-3.65-3.88-5.52-5.74a.75.75,0,1,1,1-1.06c1.89,1.87,3.77,3.82,5.58,5.78a.75.75,0,0,1-.05,1.06A.76.76,0,0,1,380.48,152Zm-250.07-3.8a.79.79,0,0,1-.53-.22.75.75,0,0,1,0-1.06c1.86-1.9,3.8-3.79,5.75-5.61a.75.75,0,0,1,1.06,0,.75.75,0,0,1,0,1.06c-1.93,1.81-3.85,3.68-5.69,5.57A.78.78,0,0,1,130.41,148.18Zm238.72-7.46a.73.73,0,0,1-.5-.19c-2-1.78-4-3.53-6-5.2a.75.75,0,0,1-.1-1.06.74.74,0,0,1,1.05-.1c2.06,1.69,4.1,3.45,6.08,5.24a.76.76,0,0,1,.06,1.06A.75.75,0,0,1,369.13,140.72Zm-227-3.46a.75.75,0,0,1-.49-1.32c2-1.73,4.14-3.43,6.24-5.06a.76.76,0,0,1,1.06.13.75.75,0,0,1-.14,1.05c-2.09,1.62-4.17,3.31-6.18,5A.78.78,0,0,1,142.1,137.26Zm214.69-6.7a.76.76,0,0,1-.45-.15c-2.12-1.58-4.3-3.14-6.48-4.62a.75.75,0,0,1-.2-1,.76.76,0,0,1,1-.2c2.2,1.49,4.39,3.06,6.53,4.66a.75.75,0,0,1,.15,1A.74.74,0,0,1,356.79,130.56Zm-202-3.09a.75.75,0,0,1-.61-.32.74.74,0,0,1,.18-1c2.19-1.53,4.43-3,6.69-4.47a.74.74,0,0,1,1,.23.76.76,0,0,1-.23,1c-2.23,1.42-4.46,2.91-6.62,4.43A.8.8,0,0,1,154.75,127.47Zm188.82-5.88a.79.79,0,0,1-.39-.11c-2.25-1.39-4.57-2.73-6.87-4a.75.75,0,1,1,.72-1.31c2.33,1.28,4.66,2.63,6.94,4a.75.75,0,0,1-.4,1.39Zm-175.3-2.7a.77.77,0,0,1-.66-.38.75.75,0,0,1,.28-1c2.32-1.33,4.7-2.61,7.08-3.83a.75.75,0,1,1,.68,1.34c-2.36,1.2-4.72,2.48-7,3.79A.74.74,0,0,1,168.27,118.89Zm161.32-5a.78.78,0,0,1-.33-.07c-2.37-1.17-4.79-2.29-7.21-3.35a.75.75,0,1,1,.6-1.37c2.44,1.06,4.88,2.19,7.27,3.37a.75.75,0,0,1-.33,1.42ZM182.52,111.6a.75.75,0,0,1-.31-1.43c2.44-1.11,4.93-2.17,7.41-3.16a.75.75,0,0,1,.55,1.4c-2.45,1-4.92,2-7.34,3.12A.67.67,0,0,1,182.52,111.6ZM315,107.51a.58.58,0,0,1-.26-.05c-2.47-.94-5-1.83-7.51-2.66a.75.75,0,1,1,.47-1.42c2.53.83,5.08,1.73,7.57,2.68a.75.75,0,0,1,.43,1A.73.73,0,0,1,315,107.51Zm-117.55-1.84a.76.76,0,0,1-.71-.51.75.75,0,0,1,.47-1c2.51-.87,5.09-1.69,7.65-2.45a.76.76,0,0,1,.93.51.74.74,0,0,1-.51.93c-2.54.75-5.09,1.56-7.58,2.43A1.18,1.18,0,0,1,197.41,105.67Zm102.36-3.15a.71.71,0,0,1-.2,0c-2.54-.71-5.14-1.36-7.72-2a.75.75,0,0,1,.34-1.46c2.6.59,5.22,1.25,7.78,2a.75.75,0,0,1-.2,1.47Zm-87-1.36a.75.75,0,0,1-.17-1.48c2.58-.63,5.22-1.21,7.84-1.71a.74.74,0,0,1,.88.59.76.76,0,0,1-.59.88c-2.6.5-5.21,1.08-7.78,1.7ZM284.18,99h-.13c-2.6-.47-5.25-.88-7.87-1.22a.74.74,0,0,1-.64-.84.75.75,0,0,1,.84-.65c2.64.35,5.31.76,7.93,1.23a.75.75,0,0,1-.13,1.49Zm-55.73-.87a.75.75,0,0,1-.11-1.49c2.63-.39,5.32-.72,8-1a.74.74,0,0,1,.82.67.75.75,0,0,1-.67.82c-2.63.26-5.29.59-7.9,1Zm39.88-1.21h-.06c-2.63-.22-5.31-.38-7.95-.48a.76.76,0,0,1-.72-.78.74.74,0,0,1,.78-.72c2.66.1,5.36.27,8,.49a.75.75,0,0,1,.69.81A.76.76,0,0,1,268.33,96.9Zm-24-.37a.75.75,0,0,1-.75-.72.74.74,0,0,1,.71-.78c2.66-.14,5.36-.23,8-.25a.75.75,0,0,1,0,1.5c-2.65,0-5.32.1-8,.24Z"/><rect class="cls-2" x="134.3" y="201.2" width="286.8" height="235.92" rx="30.82"/><path class="cls-1" d="M390.28,437.87H165.12a31.6,31.6,0,0,1-31.57-31.57V232a31.6,31.6,0,0,1,31.57-31.57H390.28A31.6,31.6,0,0,1,421.85,232V406.3A31.6,31.6,0,0,1,390.28,437.87ZM165.12,202A30.1,30.1,0,0,0,135.05,232V406.3a30.1,30.1,0,0,0,30.07,30.07H390.28a30.1,30.1,0,0,0,30.07-30.07V232A30.1,30.1,0,0,0,390.28,202Z"/><rect class="cls-3" x="218.75" y="88.63" width="18.68" height="18.68" transform="translate(114.89 -122.96) rotate(39.63)"/><path class="cls-1" d="M229.33,111.87a.78.78,0,0,1-.48-.17L214.46,99.79a.76.76,0,0,1-.1-1.06l11.92-14.39a.75.75,0,0,1,1.05-.1l14.39,11.92a.75.75,0,0,1,.1,1L229.91,111.6A.76.76,0,0,1,229.33,111.87ZM216,99.11l13.23,11,11-13.23L227,85.88Z"/><path class="cls-1" d="M420.58,163.08a.75.75,0,0,1-.35-1.41l21.64-11.49a.75.75,0,0,1,1,.31.77.77,0,0,1-.31,1L420.93,163A.73.73,0,0,1,420.58,163.08Z"/><path class="cls-1" d="M437.14,168.16a.75.75,0,0,1-.66-.4L425,146.12a.75.75,0,1,1,1.33-.7l11.48,21.64a.74.74,0,0,1-.31,1A.73.73,0,0,1,437.14,168.16Z"/><path class="cls-1" d="M83.22,163.08a.8.8,0,0,1-.36-.09L61.22,151.51a.75.75,0,0,1,.71-1.33l21.64,11.49a.75.75,0,0,1-.35,1.41Z"/><path class="cls-1" d="M66.65,168.16a.73.73,0,0,1-.35-.09.75.75,0,0,1-.31-1l11.49-21.64a.75.75,0,1,1,1.32.7L67.31,167.76A.75.75,0,0,1,66.65,168.16Z"/><path class="cls-4" d="M416.29,237.85s11.92-44,56.15-58.09l44.07,23.73s-63.11,42.5-54.92,62.9Z"/><path class="cls-1" d="M463.14,268.25l-47.72-30.07.14-.53c.12-.44,12.54-44.52,56.65-58.6l.3-.1.28.15L518,203.42l-1,.69c-.62.42-62.51,42.39-54.64,62Zm-46-30.74,43.14,27.19c-1.7-8.77,6.75-21.53,25.16-38a326.66,326.66,0,0,1,29.6-23.16l-42.71-23C431.89,193.67,418.71,232.52,417.17,237.51Z"/><path class="cls-5" d="M241.74,196.18S268.7,120,334.25,96l75.46,37.21s-75.74,68.95-78.55,97.9Z"/><path class="cls-3" d="M199.32,189.15H258.9a5.77,5.77,0,0,1,5.77,5.77v32.59a0,0,0,0,1,0,0H193.55a0,0,0,0,1,0,0V194.92A5.77,5.77,0,0,1,199.32,189.15Z"/><path class="cls-1" d="M264.68,228.26H193.55a.74.74,0,0,1-.75-.75V194.92a6.53,6.53,0,0,1,6.52-6.52H258.9a6.54,6.54,0,0,1,6.53,6.52v32.59A.75.75,0,0,1,264.68,228.26Zm-70.38-1.5h69.63V194.92a5,5,0,0,0-5-5H199.32a5,5,0,0,0-5,5Z"/><path class="cls-2" d="M269.13,189.15h59.58a5.77,5.77,0,0,1,5.77,5.77v32.59a0,0,0,0,1,0,0H263.35a0,0,0,0,1,0,0V194.92A5.77,5.77,0,0,1,269.13,189.15Z"/><path class="cls-1" d="M335.23,228.26H262.6V194.92a6.54,6.54,0,0,1,6.53-6.52h59.58a6.53,6.53,0,0,1,6.52,6.52Zm-71.13-1.5h69.63V194.92a5,5,0,0,0-5-5H269.13a5,5,0,0,0-5,5Z"/><path class="cls-4" d="M404.29,194.93v32.59H333.16V194.93a5.8,5.8,0,0,1,5.77-5.78h59.58A5.78,5.78,0,0,1,404.29,194.93Z"/><path class="cls-1" d="M405,228.27H332.41V194.93a6.55,6.55,0,0,1,6.52-6.53h59.58a6.54,6.54,0,0,1,6.53,6.53Zm-71.13-1.5h69.63V194.93a5,5,0,0,0-5-5H338.93a5,5,0,0,0-5,5Z"/><path class="cls-6" d="M404.24,226.86v163a30.67,30.67,0,0,1-30.65,30.66H142.86a30.66,30.66,0,0,1-30.66-30.66V197.12a8,8,0,0,1,8-8h67.05a8,8,0,0,1,6.71,3.67.61.61,0,0,1,.07.1,7.86,7.86,0,0,1,1.22,4.23v29.74Z"/><path class="cls-1" d="M373.59,421.26H142.86a31.44,31.44,0,0,1-31.41-31.41V197.12a8.75,8.75,0,0,1,8.75-8.75h67.05a8.72,8.72,0,0,1,7.3,3.94l.1.16a8.58,8.58,0,0,1,1.35,4.65v29H405V389.85a31.42,31.42,0,0,1-31.4,31.41ZM120.2,189.87a7.26,7.26,0,0,0-7.25,7.25V389.85a30,30,0,0,0,29.91,29.91H373.59a29.94,29.94,0,0,0,29.9-29.91V227.61h-209V197.12a7.15,7.15,0,0,0-1.1-3.83l-.07-.1a7.2,7.2,0,0,0-6.08-3.32Z"/><path class="cls-4" d="M173.12,289.44S137.92,231.36,72,226.94L20.74,282s110.37,30,108.57,63Z"/><path class="cls-1" d="M128.43,347.32l.13-2.36c1.75-32-106.92-61.92-108-62.22l-1.2-.33,52.35-56.24.35,0c34.27,2.3,60.1,19.27,75.74,33.1a146.5,146.5,0,0,1,26,29.76l.27.45Zm-106.3-65.7A492,492,0,0,1,76,300.45c34.77,14.76,52.92,29,54,42.43l42.17-53.49c-3.42-5.34-38.37-57.36-99.9-61.68Z"/><path class="cls-5" d="M173.72,166.67s9-38.46-24.05-61.09l-42.26,8.65S149,165,137.14,179.77Z"/><circle class="cls-3" cx="131.51" cy="210.5" r="6.35"/><path class="cls-1" d="M131.51,217.6a7.1,7.1,0,1,1,7.1-7.1A7.11,7.11,0,0,1,131.51,217.6Zm0-12.7a5.6,5.6,0,1,0,5.6,5.6A5.6,5.6,0,0,0,131.51,204.9Z"/><circle class="cls-6" cx="152.03" cy="210.5" r="6.35"/><path class="cls-1" d="M152,217.6a7.1,7.1,0,1,1,7.1-7.1A7.1,7.1,0,0,1,152,217.6Zm0-12.7a5.6,5.6,0,1,0,5.6,5.6A5.6,5.6,0,0,0,152,204.9Z"/><circle class="cls-4" cx="172.55" cy="210.5" r="6.35"/><path class="cls-1" d="M172.55,217.6a7.1,7.1,0,1,1,7.1-7.1A7.1,7.1,0,0,1,172.55,217.6Zm0-12.7a5.6,5.6,0,1,0,5.6,5.6A5.6,5.6,0,0,0,172.55,204.9Z"/><path class="cls-2" d="M273.77,321.39l41.63-41.64a10.67,10.67,0,0,0-15.09-15.09l-41.63,41.63L217,264.66A10.67,10.67,0,0,0,202,279.75l41.63,41.64L202,363A10.67,10.67,0,1,0,217,378.11l41.64-41.63,41.63,41.63A10.67,10.67,0,1,0,315.4,363Z"/><path class="cls-5" d="M359.67,408.33H346a.75.75,0,0,1,0-1.5h13.68a26.08,26.08,0,0,0,26.05-26.05V360.91a.75.75,0,0,1,1.5,0v19.87A27.58,27.58,0,0,1,359.67,408.33Z"/><path class="cls-5" d="M338.17,408.16h-32.8a.75.75,0,0,1,0-1.5h32.8a.75.75,0,0,1,0,1.5Z"/><path class="cls-5" d="M413,400.32a.74.74,0,0,1-.75-.75V360.26a.75.75,0,0,1,1.5,0v39.31A.75.75,0,0,1,413,400.32Z"/><path class="cls-5" d="M252,217.57a.76.76,0,0,1-.75-.75V199.19a.75.75,0,0,1,1.5,0v17.63A.76.76,0,0,1,252,217.57Z"/><path class="cls-5" d="M321.92,217.57a.75.75,0,0,1-.75-.75V199.19a.75.75,0,0,1,1.5,0v17.63A.76.76,0,0,1,321.92,217.57Z"/><path class="cls-5" d="M391.85,217.57a.76.76,0,0,1-.75-.75V199.19a.75.75,0,1,1,1.5,0v17.63A.75.75,0,0,1,391.85,217.57Z"/><path class="cls-7" d="M404.28,223.91v3.61h0V389.85a30.57,30.57,0,0,1-10,22.63v-67.7c-27.34-4.4-50.06-27.29-50.06-57.26a59,59,0,0,1,50.06-58.28v-5.33Z"/><path class="cls-3" d="M469.73,280.67a59,59,0,0,1-59,59,61,61,0,0,1-7.06-.42,59,59,0,0,1,0-117.13,61,61,0,0,1,7.06-.41A59,59,0,0,1,469.73,280.67Z"/><path class="cls-1" d="M410.74,340.41a61.64,61.64,0,0,1-7.15-.43,59.74,59.74,0,0,1,0-118.61,61.48,61.48,0,0,1,7.15-.42,59.73,59.73,0,0,1,0,119.46Zm0-118A58.22,58.22,0,1,0,469,280.67,58.43,58.43,0,0,0,410.74,222.45Z"/><path class="cls-5" d="M410.81,320.9a10.28,10.28,0,0,1,0-20.55,10.28,10.28,0,1,1,0,20.55Zm7.4-35.22a7.41,7.41,0,0,1-14.8,0c-.64-14.17-2-40.07-2-42.63a9.26,9.26,0,0,1,9.57-9.31,9.09,9.09,0,0,1,9.18,9.31C420.12,245.61,418.85,271.51,418.21,285.68Z"/><path class="cls-5" d="M432.21,324.32a.74.74,0,0,1-.73-.6.75.75,0,0,1,.58-.89c.2,0,20.51-4.66,25.85-31.9a.75.75,0,1,1,1.47.29c-2.89,14.74-10.06,22.94-15.56,27.23a30.92,30.92,0,0,1-11.46,5.85Z"/></svg>