<svg id="Layer_1" data-name="Layer 1" xmlns="http://www.w3.org/2000/svg" viewBox="0 0 550 500"><defs><style>.cls-1{fill:#fff;}.cls-2{fill:#402639;}.cls-3{fill:#00487c;}.cls-4{fill:#fff;}.cls-5{fill:#3849a0;}.cls-6{fill:#0495fd;}.cls-7{fill:#0b233f;opacity:0.26;}</style></defs><polygon class="cls-2" points="328.19 222 237.24 114.2 156.38 196.34 155.31 195.29 237.32 111.98 237.85 112.61 328.53 220.08 420.83 167.92 421.57 169.22 328.19 222"/><path class="cls-3" d="M176.28,266.25V430.14H115.61V266.25a7.29,7.29,0,0,1,7.3-7.29H169a7.29,7.29,0,0,1,6.62,4.22A7.22,7.22,0,0,1,176.28,266.25Z"/><path class="cls-2" d="M177,430.89H114.86V266.25a8.06,8.06,0,0,1,8-8H169a8.06,8.06,0,0,1,7.3,4.66,7.74,7.74,0,0,1,.75,3.38Zm-60.67-1.5h59.17V266.25a6.32,6.32,0,0,0-.61-2.75,6.55,6.55,0,0,0-5.94-3.79H122.91a6.55,6.55,0,0,0-6.55,6.54Z"/><path class="cls-4" d="M172.16,215.45a23.76,23.76,0,1,1-3.22-11.91A23.65,23.65,0,0,1,172.16,215.45Z"/><path class="cls-2" d="M148.43,239.92a24.5,24.5,0,1,1,17.62-7.5A24.19,24.19,0,0,1,148.43,239.92Zm0-47.45a23,23,0,0,0,0,45.95,23,23,0,0,0,19.87-34.5A23.05,23.05,0,0,0,148.43,192.47Z"/><path class="cls-5" d="M271.8,165.91V431.45H211.12V165.91a7.29,7.29,0,0,1,7.3-7.29H264.5a7.29,7.29,0,0,1,7.3,7.29Z"/><path class="cls-2" d="M271.8,432.2H211.12a.74.74,0,0,1-.75-.75V165.91a8,8,0,0,1,8-8H264.5a8,8,0,0,1,8.05,8V431.45A.75.75,0,0,1,271.8,432.2Zm-59.93-1.5h59.18V165.91a6.43,6.43,0,0,0-.72-3,6.52,6.52,0,0,0-5.83-3.56H218.42a6.55,6.55,0,0,0-6.55,6.54Z"/><circle class="cls-6" cx="237.28" cy="113.09" r="22.51"/><path class="cls-2" d="M237.28,136.35a23.26,23.26,0,1,1,23.26-23.26A23.28,23.28,0,0,1,237.28,136.35Zm0-45A21.76,21.76,0,1,0,259,113.09,21.78,21.78,0,0,0,237.28,91.33Z"/><path class="cls-6" d="M359,266.18V430.06H298.27V266.18a7.29,7.29,0,0,1,7.3-7.28h46.08a7.28,7.28,0,0,1,7.3,7.28Z"/><path class="cls-2" d="M359,430.81H298.27a.76.76,0,0,1-.75-.75V266.18a8,8,0,0,1,8.05-8h46.08a8,8,0,0,1,8.05,8V430.06A.76.76,0,0,1,359,430.81ZM299,429.31H358.2V266.18a6.44,6.44,0,0,0-.73-3,6.52,6.52,0,0,0-5.82-3.54H305.57a6.55,6.55,0,0,0-6.55,6.53Z"/><path class="cls-5" d="M347.78,222.31a18.85,18.85,0,0,1-.95,5.94,19.14,19.14,0,1,1,0-11.87A18.75,18.75,0,0,1,347.78,222.31Z"/><path class="cls-2" d="M328.61,242.2a19.89,19.89,0,1,1,18.93-26,19.69,19.69,0,0,1,0,12.33A19.85,19.85,0,0,1,328.61,242.2Zm0-38.27a18.39,18.39,0,1,0,17.51,12.68A18.42,18.42,0,0,0,328.61,203.93Z"/><path class="cls-4" d="M450.28,207.46V430.17H389.59V207.46a7.3,7.3,0,0,1,7.3-7.29H443A7.29,7.29,0,0,1,450.28,207.46Z"/><path class="cls-2" d="M451,430.92H388.84V207.46a8.06,8.06,0,0,1,8.05-8H443a8.06,8.06,0,0,1,8,8Zm-60.69-1.5h59.19v-222a6.56,6.56,0,0,0-6.55-6.54H396.89a6.56,6.56,0,0,0-6.55,6.54Z"/><circle class="cls-6" cx="419.94" cy="166.85" r="25.29"/><path class="cls-2" d="M419.94,192.89a26,26,0,1,1,26-26A26.07,26.07,0,0,1,419.94,192.89Zm0-50.57a24.54,24.54,0,1,0,24.54,24.54A24.56,24.56,0,0,0,419.94,142.32Z"/><path class="cls-7" d="M450.28,207.47V429.38H439V200.17h4A7.3,7.3,0,0,1,450.28,207.47Z"/><path class="cls-7" d="M347.78,222.35a18.85,18.85,0,0,1-.95,5.94V216.4A18.87,18.87,0,0,1,347.78,222.35Z"/><path class="cls-7" d="M358.14,263V429.38H346.83V259h4.82A7.3,7.3,0,0,1,358.14,263Z"/><path class="cls-7" d="M266.81,161.2V429.38h-11.3V157.22h4.81A7.29,7.29,0,0,1,266.81,161.2Z"/><path class="cls-7" d="M175.6,263.19V429.38H164.29V259H169A7.3,7.3,0,0,1,175.6,263.19Z"/><path class="cls-1" d="M437.06,174.11H437a.75.75,0,0,1-.69-.81c.65-7.78-1-13.74-5-17.71-6.19-6.19-16-5.46-16.08-5.45a.76.76,0,0,1-.81-.68.75.75,0,0,1,.69-.81c.42,0,10.56-.81,17.25,5.87,4.3,4.3,6.14,10.66,5.45,18.91A.76.76,0,0,1,437.06,174.11Z"/><path class="cls-1" d="M330,236.61a.75.75,0,0,1-.75-.71.77.77,0,0,1,.72-.79,11.33,11.33,0,0,0,10.29-6.45,17,17,0,0,0,1.73-6.24.75.75,0,0,1,1.5.07c0,.13-.71,13.56-13.45,14.12Z"/><path class="cls-1" d="M247.52,127.15a.85.85,0,0,1-.31-.06.74.74,0,0,1-.37-1c6.94-15.45.18-23.75.11-23.83a.75.75,0,1,1,1.14-1c.31.36,7.47,9,.11,25.41A.73.73,0,0,1,247.52,127.15Z"/><path class="cls-1" d="M165.09,214.86a.75.75,0,0,1-.73-.57c-.17-.7-4.32-17.08-24.2-15.24a.75.75,0,0,1-.13-1.5c21.18-2,25.74,16.2,25.79,16.39a.76.76,0,0,1-.56.9Z"/><path class="cls-1" d="M346.59,342.86a.76.76,0,0,1-.75-.75V301.2a.75.75,0,0,1,1.5,0v40.91A.75.75,0,0,1,346.59,342.86Z"/><path class="cls-1" d="M337,374.94a.75.75,0,0,1-.75-.75V353.36a.75.75,0,0,1,1.5,0v20.83A.76.76,0,0,1,337,374.94Z"/><path class="cls-1" d="M255.25,182.76a.75.75,0,0,1-.75-.75V168.26a5.12,5.12,0,0,0-5.12-5.11H237a.75.75,0,0,1,0-1.5h12.41a6.62,6.62,0,0,1,6.62,6.61V182A.76.76,0,0,1,255.25,182.76Z"/><path class="cls-1" d="M255.42,215.12a.74.74,0,0,1-.75-.75V190.75a.75.75,0,1,1,1.5,0v23.62A.75.75,0,0,1,255.42,215.12Z"/><path class="cls-1" d="M154.29,400.21a.75.75,0,0,1-.75-.75V370.84a.75.75,0,0,1,1.5,0v28.62A.74.74,0,0,1,154.29,400.21Z"/><path class="cls-1" d="M154.29,358.49a.75.75,0,0,1-.75-.75V336.42a.75.75,0,0,1,1.5,0v21.32A.74.74,0,0,1,154.29,358.49Z"/></svg>