<svg width="452" height="410" viewBox="0 0 452 410" fill="none" xmlns="http://www.w3.org/2000/svg">
<path d="M234.054 352.821C241.54 349.607 261.996 348.303 272.35 366.319C272.35 365.843 272.277 365.384 272.219 364.925V364.851C271.672 360.523 269.847 356.455 266.978 353.164C264.108 349.873 260.323 347.508 256.103 346.368C255.396 346.182 254.673 346.026 253.934 345.901C252.752 345.709 251.556 345.613 250.359 345.614C249.496 345.612 248.634 345.664 247.778 345.769C247.077 345.845 246.38 345.957 245.691 346.106C241.204 347.076 237.134 349.425 234.054 352.821Z" fill="#FBE1CA"/>
<path d="M360.458 337.881C357.614 328.41 337.644 323.359 332.467 338.521C332.615 334.968 334.113 331.604 336.657 329.113C339.2 326.623 342.599 325.191 346.162 325.11C349.725 325.028 353.185 326.303 355.841 328.675C358.496 331.047 360.147 334.339 360.458 337.881Z" fill="#FBE1CA"/>
<path d="M364.969 340.3C364.806 340.3 364.649 340.235 364.534 340.12C364.418 340.005 364.353 339.848 364.353 339.685C364.355 339.137 364.328 338.59 364.271 338.045C363.904 333.334 361.743 328.942 358.232 325.772C354.721 322.601 350.126 320.893 345.391 320.998C340.657 321.103 336.142 323.013 332.776 326.336C329.409 329.659 327.446 334.142 327.289 338.865C327.289 339.16 327.289 339.431 327.289 339.685C327.289 339.848 327.224 340.005 327.109 340.12C326.993 340.235 326.836 340.3 326.673 340.3C326.509 340.3 326.352 340.235 326.237 340.12C326.121 340.005 326.056 339.848 326.056 339.685C326.056 339.379 326.056 339.075 326.056 338.775C325.938 333.555 327.902 328.503 331.517 324.728C335.131 320.954 340.101 318.766 345.332 318.648C350.563 318.529 355.627 320.489 359.41 324.096C363.193 327.703 365.385 332.662 365.504 337.881C365.562 338.481 365.589 339.083 365.586 339.685C365.586 339.848 365.521 340.005 365.405 340.12C365.29 340.235 365.133 340.3 364.969 340.3Z" fill="#24071D"/>
<path d="M332.836 311.444C324.52 307.73 314.387 308.443 309.365 318.726C309.531 316.071 310.501 313.529 312.148 311.437C313.794 309.345 316.039 307.801 318.585 307.012C321.131 306.222 323.857 306.223 326.402 307.014C328.947 307.806 331.191 309.351 332.836 311.444Z" fill="#FBE1CA"/>
<path d="M165.753 305.261C165.753 305.261 148.881 272.051 121.761 295.823C123.923 291.034 127.665 287.129 132.363 284.76C137.062 282.391 142.432 281.701 147.579 282.805C152.726 283.909 157.337 286.741 160.645 290.827C163.952 294.914 165.755 300.009 165.753 305.261Z" fill="#FBE1CA"/>
<path d="M380.682 346.606C380.682 346.606 400.883 315.29 366.621 303.966C371.852 303.413 377.116 304.665 381.534 307.514C385.953 310.362 389.26 314.636 390.904 319.622C392.548 324.608 392.43 330.005 390.571 334.915C388.711 339.825 385.221 343.951 380.682 346.606Z" fill="#FBE1CA"/>
<path d="M171.76 308.066C171.596 308.066 171.44 308.001 171.324 307.886C171.208 307.77 171.144 307.614 171.144 307.451C171.144 300.849 168.877 294.446 164.719 289.311C160.562 284.175 154.766 280.617 148.297 279.229C141.829 277.841 135.079 278.707 129.173 281.684C123.267 284.66 118.563 289.567 115.843 295.585C114.153 299.313 113.284 303.359 113.296 307.451C113.296 307.614 113.231 307.77 113.115 307.886C113 308.001 112.843 308.066 112.679 308.066C112.516 308.066 112.359 308.001 112.244 307.886C112.128 307.77 112.063 307.614 112.063 307.451C112.053 303.184 112.961 298.964 114.726 295.077C117.563 288.805 122.469 283.693 128.625 280.593C134.781 277.492 141.816 276.59 148.558 278.037C155.3 279.484 161.342 283.193 165.676 288.545C170.01 293.897 172.375 300.57 172.376 307.451C172.376 307.614 172.311 307.77 172.196 307.886C172.08 308.001 171.923 308.066 171.76 308.066Z" fill="#24071D"/>
<path d="M257.443 340.448C262.308 335.528 271.537 324.113 269.466 310.673L179.428 311.141C179.428 311.141 184.531 343.555 194.746 343.121C193.889 339.97 193.867 336.651 194.68 333.489C195.494 330.327 197.117 327.43 199.39 325.081C199.39 325.081 201.239 357.963 220.757 365.835C221.145 365.791 221.53 365.72 221.907 365.622C222.706 359.317 225.522 353.438 229.938 348.858C234.353 344.278 240.131 341.242 246.414 340.202C248.088 336.759 249.586 333.234 250.901 329.64C250.901 329.64 254.402 329.64 254.641 339.964" fill="#e3803a"/>
<path d="M220.642 366.417L220.502 366.359C212.358 363.079 206.013 354.879 202.167 342.645C200.539 337.393 199.437 331.993 198.88 326.524C197.023 328.779 195.731 331.442 195.111 334.294C194.491 337.146 194.56 340.104 195.313 342.924L195.576 343.695H194.755H194.508C184.03 343.695 179.009 312.535 178.795 311.214L178.688 310.509L269.967 310.034L270.05 310.559C270.945 316.299 270.543 327.951 257.862 340.857L256.983 340.037C268.907 327.893 269.655 317.02 268.907 311.337L180.151 311.797C181.655 320.817 186.643 341.407 193.941 342.489C193.244 339.335 193.336 336.058 194.209 332.948C195.082 329.837 196.709 326.989 198.946 324.654L199.924 323.621L200.006 325.04C200.006 325.368 202.052 357.463 220.823 365.22C220.929 365.22 221.102 365.179 221.332 365.129C222.241 358.844 225.113 353.004 229.539 348.441C233.965 343.877 239.72 340.822 245.987 339.709C247.515 336.593 248.978 333.149 250.334 329.541L250.482 329.14H250.909C251.328 329.14 255.018 329.451 255.265 340.07H254.032C253.868 332.797 252.085 330.96 251.279 330.501C249.923 334.076 248.469 337.438 246.948 340.513L246.808 340.792L246.496 340.849C240.352 341.876 234.702 344.849 230.381 349.328C226.061 353.807 223.3 359.554 222.507 365.72L222.45 366.138L222.039 366.236C221.629 366.343 221.211 366.419 220.79 366.466L220.642 366.417Z" fill="#24071D"/>
<path d="M204.772 311.6C204.772 311.6 206.975 325.966 211.347 325.761C210.975 324.368 210.963 322.903 211.313 321.503C211.662 320.104 212.361 318.815 213.344 317.758C213.344 317.758 214.166 332.33 222.557 335.798C222.557 335.798 229.953 335.183 235.558 319.792C235.558 319.792 237.366 319.792 237.16 325.745C237.16 325.745 244.77 319.382 243.562 311.379L204.772 311.6Z" fill="#fdaf4e"/>
<path d="M309.086 274.798C309.086 275.241 309.086 275.692 309.086 276.119H137.326C137.326 275.692 137.326 275.241 137.326 274.798C137.326 217.079 175.779 170.298 223.214 170.298C243.702 170.298 262.521 179.031 277.281 193.602C296.676 212.757 309.086 242.007 309.086 274.798Z" fill="#00487c"/>
<path d="M309.078 276.734H137.318C137.155 276.734 137 276.67 136.885 276.556C136.769 276.443 136.703 276.288 136.701 276.127C136.701 275.7 136.701 275.249 136.701 274.798C136.701 216.841 175.507 169.683 223.206 169.683C243.02 169.683 262.374 178.022 277.709 193.167C298.041 213.233 309.702 242.982 309.702 274.798C309.702 275.249 309.702 275.7 309.702 276.127C309.698 276.289 309.63 276.444 309.513 276.557C309.397 276.67 309.24 276.734 309.078 276.734ZM137.942 275.52H308.469V274.815C308.469 243.327 296.964 213.889 276.838 194.061C261.741 179.145 242.691 170.929 223.206 170.929C176.19 170.929 137.934 217.53 137.934 274.815C137.934 275.028 137.934 275.266 137.942 275.52Z" fill="#24071D"/>
<path opacity="0.26" d="M308.502 274.192C308.502 274.618 308.502 275.012 308.502 275.446H296.175C294.153 250.092 277.635 202.466 277.635 202.466L279.057 197.382C297.021 215.521 308.502 243.188 308.502 274.192Z" fill="#680000"/>
<path d="M77.736 188.436C77.736 179.309 71.9011 171.888 64.5869 171.847C71.9011 171.888 77.8593 164.516 77.9004 155.39C77.8593 164.516 83.7435 171.946 91.0495 171.978C83.7435 171.946 77.7771 179.309 77.736 188.436Z" fill="#00487c"/>
<path d="M78.3113 188.436H77.1607C77.1607 179.637 71.5642 172.454 64.5869 172.421V171.273C66.3243 171.233 68.0299 170.8 69.5756 170.007C71.1214 169.215 72.4671 168.083 73.5119 166.698C76.0227 163.465 77.3637 159.48 77.3169 155.39H78.4674C78.4674 164.18 84.064 171.363 91.0495 171.396V172.544H91.0002C89.2688 172.586 87.5697 173.02 86.0308 173.813C84.4919 174.605 83.1534 175.736 82.1163 177.12C79.6037 180.355 78.2626 184.343 78.3113 188.436ZM68.1536 171.872C72.764 173.422 76.3718 177.874 77.7607 183.54C78.3733 180.938 79.5579 178.504 81.2287 176.415C82.8328 174.349 85.0108 172.801 87.491 171.962C82.8724 170.404 79.2235 165.951 77.8839 160.293C77.2653 162.891 76.0813 165.321 74.4159 167.411C72.8065 169.473 70.6307 171.023 68.1536 171.872Z" fill="#24071D"/>
<path d="M322.975 109.06C323.016 99.9251 317.132 92.5041 309.826 92.4713C317.132 92.4713 323.098 85.1405 323.139 76.0139C323.098 85.1405 328.982 92.5697 336.288 92.6025C328.974 92.5861 322.975 99.9415 322.975 109.06Z" fill="#00487c"/>
<path d="M323.583 109.06H322.35C322.391 100.286 316.77 93.1192 309.817 93.0864V91.84H309.867C316.795 91.84 322.465 84.747 322.506 75.9976H323.739C323.657 80.0766 324.957 84.0638 327.429 87.3136C328.451 88.7108 329.78 89.8561 331.314 90.662C332.848 91.4679 334.547 91.9129 336.28 91.963V93.193H336.231C334.505 93.2353 332.811 93.6684 331.278 94.4597C329.745 95.2509 328.412 96.3796 327.38 97.7604C324.868 100.989 323.529 104.973 323.583 109.06ZM313.499 92.4878C318.036 94.0622 321.627 98.4328 322.991 103.968C323.616 101.422 324.785 99.0417 326.418 96.9896C328.008 94.9602 330.147 93.4267 332.582 92.5698C330.155 91.6894 328.033 90.1326 326.467 88.0844C324.854 86.0163 323.707 83.6247 323.106 81.0734C321.684 86.6412 318.044 91.02 313.499 92.5042V92.4878Z" fill="#24071D"/>
<path d="M318.224 155.242C318.136 155.243 318.049 155.223 317.97 155.185L307.475 150.265C307.401 150.231 307.334 150.184 307.279 150.124C307.223 150.064 307.18 149.995 307.152 149.918C307.123 149.842 307.11 149.761 307.114 149.68C307.117 149.598 307.137 149.519 307.171 149.445C307.241 149.297 307.366 149.182 307.52 149.125C307.673 149.069 307.843 149.074 307.993 149.142L318.487 154.062C318.562 154.095 318.628 154.143 318.684 154.203C318.739 154.262 318.782 154.333 318.809 154.409C318.837 154.486 318.849 154.567 318.844 154.648C318.84 154.729 318.819 154.809 318.783 154.882C318.735 154.989 318.657 155.081 318.558 155.145C318.458 155.209 318.343 155.243 318.224 155.242Z" fill="#24071D"/>
<path d="M383.37 174.472L374.049 165.172L364.728 174.472L374.049 183.773L383.37 174.472Z" fill="#0496ff"/>
<path d="M374.05 184.639L363.86 174.471L374.05 164.303L384.241 174.471L374.05 184.639ZM365.602 174.471L374.05 182.901L382.499 174.471L374.05 166.042L365.602 174.471Z" fill="#24071D"/>
<path d="M90.1267 105.866L80.8057 96.5652L71.4846 105.866L80.8057 115.166L90.1267 105.866Z" fill="#0496ff"/>
<path d="M80.8093 115.784C80.7283 115.784 80.648 115.769 80.5732 115.738C80.4984 115.707 80.4306 115.661 80.3737 115.604L71.0543 106.305C70.9389 106.19 70.874 106.033 70.874 105.87C70.874 105.707 70.9389 105.551 71.0543 105.436L80.3737 96.1369C80.4893 96.0217 80.6459 95.957 80.8093 95.957C80.9726 95.957 81.1293 96.0217 81.2448 96.1369L90.5642 105.436C90.6224 105.492 90.6686 105.56 90.7002 105.634C90.7317 105.709 90.748 105.789 90.748 105.87C90.748 105.951 90.7317 106.031 90.7002 106.106C90.6686 106.181 90.6224 106.248 90.5642 106.305L81.2448 115.62C81.1868 115.675 81.1184 115.718 81.0436 115.746C80.9688 115.774 80.8892 115.787 80.8093 115.784ZM72.361 105.87L80.8093 114.3L89.2576 105.87L80.8093 97.4407L72.361 105.87Z" fill="#24071D"/>
<path d="M139.019 104.05C138.938 104.05 138.857 104.035 138.783 104.004C138.708 103.973 138.64 103.927 138.583 103.869C138.468 103.754 138.403 103.598 138.403 103.435C138.403 103.272 138.468 103.116 138.583 103L152.209 89.3801C152.266 89.3221 152.333 89.276 152.408 89.2445C152.483 89.213 152.563 89.1968 152.644 89.1968C152.726 89.1968 152.806 89.213 152.881 89.2445C152.956 89.276 153.023 89.3221 153.08 89.3801C153.195 89.4954 153.26 89.6517 153.26 89.8147C153.26 89.9777 153.195 90.134 153.08 90.2493L139.454 103.837C139.4 103.901 139.334 103.952 139.259 103.989C139.184 104.026 139.102 104.047 139.019 104.05Z" fill="#24071D"/>
<path d="M152.644 104.05C152.563 104.05 152.483 104.034 152.408 104.003C152.334 103.972 152.266 103.927 152.209 103.869L138.583 90.282C138.468 90.1667 138.403 90.0104 138.403 89.8474C138.403 89.6844 138.468 89.5281 138.583 89.4128C138.64 89.3548 138.707 89.3087 138.782 89.2772C138.857 89.2457 138.937 89.2295 139.019 89.2295C139.1 89.2295 139.18 89.2457 139.255 89.2772C139.33 89.3087 139.398 89.3548 139.454 89.4128L153.08 103C153.195 103.116 153.26 103.272 153.26 103.435C153.26 103.598 153.195 103.754 153.08 103.869C153.023 103.927 152.955 103.972 152.88 104.003C152.806 104.034 152.725 104.05 152.644 104.05Z" fill="#24071D"/>
<path d="M266.984 276.34H179.419C166.832 249.559 161.942 219.818 165.294 190.428C168.645 161.039 180.107 133.154 198.403 109.88C202.354 104.849 206.608 100.062 211.142 95.5464L217.437 89.2652C218.966 87.749 221.034 86.8979 223.189 86.8979C225.345 86.8979 227.413 87.749 228.942 89.2652L235.237 95.5464C239.779 100.062 244.041 104.848 248 109.88C266.3 133.152 277.765 161.037 281.117 190.428C284.469 219.818 279.576 249.561 266.984 276.34Z" fill="#0496ff"/>
<path d="M267.37 276.98H179.025L178.86 276.627C164.821 246.777 160.346 213.333 166.044 180.854C171.743 148.374 187.338 118.436 210.706 95.12L217.001 88.8388C218.647 87.2044 220.875 86.2869 223.197 86.2869C225.52 86.2869 227.748 87.2044 229.394 88.8388L235.689 95.12C261.544 120.898 277.809 154.709 281.793 190.962C285.026 220.278 280.096 249.917 267.543 276.619L267.37 276.98ZM179.814 275.75H266.589C280.433 246.158 284.81 213.032 279.126 180.872C273.441 148.712 257.971 119.078 234.818 95.9974L228.523 89.7162C227.822 89.015 226.989 88.4587 226.073 88.0792C225.156 87.6996 224.173 87.5042 223.181 87.5042C222.189 87.5042 221.206 87.6996 220.289 88.0792C219.373 88.4587 218.54 89.015 217.839 89.7162L211.544 95.9974C188.413 119.092 172.961 148.728 167.285 180.883C161.609 213.039 165.983 246.159 179.814 275.75Z" fill="#24071D"/>
<path d="M248.008 109.88L237.325 108.601C227.573 107.435 217.715 107.462 207.969 108.683L198.403 109.88C202.36 104.851 206.616 100.064 211.15 95.5464L217.445 89.2652C218.973 87.7469 221.041 86.8945 223.198 86.8945C225.354 86.8945 227.422 87.7469 228.95 89.2652L235.245 95.5464C239.785 100.064 244.047 104.85 248.008 109.88Z" fill="#00487c"/>
<path d="M248.008 110.511H247.934L237.251 109.24C227.545 108.08 217.734 108.105 208.035 109.314L198.461 110.511C198.341 110.525 198.22 110.503 198.112 110.448C198.005 110.393 197.916 110.308 197.856 110.203C197.796 110.099 197.769 109.979 197.777 109.858C197.785 109.738 197.829 109.623 197.902 109.527C201.88 104.474 206.159 99.6627 210.714 95.1199L217.009 88.8387C217.822 88.0249 218.787 87.3798 219.851 86.9407C220.915 86.5016 222.055 86.2771 223.206 86.2803C224.357 86.2776 225.497 86.5022 226.56 86.9414C227.624 87.3805 228.59 88.0253 229.402 88.8387L235.697 95.1199C240.247 99.6579 244.52 104.463 248.493 109.511C248.564 109.602 248.608 109.71 248.619 109.825C248.631 109.939 248.611 110.054 248.56 110.158C248.51 110.261 248.431 110.348 248.334 110.409C248.236 110.47 248.123 110.503 248.008 110.503V110.511ZM222.984 107.149C227.804 107.149 232.621 107.437 237.407 108.01L246.595 109.109C242.919 104.521 238.99 100.141 234.826 95.9891L228.531 89.7079C227.833 89.0084 227.003 88.454 226.089 88.0767C225.175 87.6995 224.195 87.507 223.206 87.5103C222.217 87.507 221.237 87.6995 220.322 88.0767C219.408 88.454 218.578 89.0084 217.88 89.7079L211.585 95.9891C207.426 100.143 203.5 104.523 199.825 109.109L207.904 108.101C212.905 107.468 217.942 107.15 222.984 107.149Z" fill="#24071D"/>
<path d="M266.688 276.192H181.564V286.049H266.688V276.192Z" fill="#0496ff"/>
<path d="M267.304 286.664H180.948V275.577H267.304V286.664ZM182.18 285.434H266.072V276.807H182.18V285.434Z" fill="#24071D"/>
<path d="M278.325 310.305H169.927L181.564 285.795H266.688L278.325 310.305Z" fill="#0496ff"/>
<path d="M279.303 310.919H168.949L181.178 285.18H267.091L279.303 310.919ZM170.938 309.689H277.355L266.269 286.41H181.95L170.938 309.689Z" fill="#24071D"/>
<path opacity="0.26" d="M266.721 286.418L278.35 310.919H259.892L248.255 286.418V276.988H248.551C262.546 247.256 267.01 213.94 261.333 181.584C255.656 149.227 240.115 119.406 216.828 96.1861L213.993 93.3653L217.461 89.9049C218.99 88.3886 221.058 87.5376 223.214 87.5376C225.37 87.5376 227.438 88.3886 228.967 89.9049L235.262 96.1861C239.795 100.699 244.049 105.483 248 110.511C266.297 133.785 277.759 161.67 281.111 191.06C284.463 220.45 279.572 250.191 266.984 276.971H266.696L266.721 286.418Z" fill="#680000"/>
<path d="M261.585 130.741H261.478C221.521 123.763 198.034 126.51 185.369 130.044C185.291 130.065 185.209 130.071 185.129 130.061C185.048 130.051 184.97 130.026 184.9 129.986C184.829 129.946 184.767 129.892 184.717 129.828C184.668 129.765 184.631 129.691 184.609 129.613C184.588 129.535 184.582 129.454 184.592 129.373C184.602 129.293 184.627 129.215 184.667 129.145C184.708 129.075 184.761 129.013 184.825 128.963C184.889 128.913 184.962 128.876 185.041 128.855C197.828 125.288 221.505 122.508 261.692 129.535C261.837 129.569 261.965 129.653 262.052 129.773C262.14 129.893 262.181 130.041 262.168 130.189C262.155 130.337 262.088 130.475 261.981 130.578C261.874 130.681 261.733 130.742 261.585 130.749V130.741Z" fill="#24071D"/>
<path d="M223.173 202.63C237.434 202.63 248.995 191.095 248.995 176.866C248.995 162.636 237.434 151.101 223.173 151.101C208.912 151.101 197.352 162.636 197.352 176.866C197.352 191.095 208.912 202.63 223.173 202.63Z" fill="#ffffff"/>
<path d="M223.173 203.245C217.944 203.245 212.832 201.698 208.485 198.799C204.137 195.901 200.748 191.781 198.747 186.961C196.746 182.14 196.223 176.836 197.243 171.719C198.263 166.602 200.781 161.902 204.478 158.213C208.176 154.523 212.887 152.011 218.015 150.993C223.143 149.975 228.459 150.498 233.29 152.494C238.121 154.491 242.25 157.872 245.155 162.21C248.06 166.548 249.611 171.648 249.611 176.866C249.604 183.86 246.817 190.566 241.86 195.512C236.903 200.457 230.183 203.239 223.173 203.245ZM223.173 151.716C218.188 151.716 213.314 153.191 209.17 155.955C205.025 158.718 201.794 162.646 199.886 167.241C197.979 171.837 197.479 176.894 198.452 181.772C199.424 186.651 201.825 191.132 205.35 194.649C208.875 198.166 213.366 200.562 218.255 201.532C223.145 202.502 228.213 202.004 232.818 200.101C237.424 198.197 241.361 194.974 244.13 190.838C246.9 186.702 248.378 181.84 248.378 176.866C248.374 170.196 245.717 163.8 240.992 159.081C236.266 154.363 229.858 151.709 223.173 151.7V151.716Z" fill="#000000"/>
<path d="M223.674 58.4905H222.441V87.0429H223.674V58.4905Z" fill="#24071D"/>
<path d="M223.033 64.7555C225.906 64.7555 228.235 62.4316 228.235 59.5649C228.235 56.6982 225.906 54.3743 223.033 54.3743C220.16 54.3743 217.831 56.6982 217.831 59.5649C217.831 62.4316 220.16 64.7555 223.033 64.7555Z" fill="#0496ff"/>
<path d="M223.033 65.3622C221.882 65.3638 220.756 65.0245 219.798 64.3872C218.839 63.7499 218.092 62.8432 217.651 61.7821C217.21 60.7209 217.094 59.5529 217.318 58.426C217.542 57.299 218.097 56.2638 218.911 55.4514C219.725 54.639 220.762 54.0859 221.892 53.8621C223.021 53.6384 224.192 53.754 225.255 54.1945C226.319 54.6349 227.228 55.3803 227.866 56.3363C228.505 57.2923 228.845 58.4158 228.843 59.5648C228.841 61.1017 228.228 62.575 227.139 63.6618C226.05 64.7485 224.574 65.36 223.033 65.3622ZM223.033 54.9892C222.127 54.994 221.243 55.2665 220.492 55.7722C219.741 56.2779 219.157 56.9942 218.814 57.8307C218.471 58.6672 218.384 59.5865 218.563 60.4724C218.743 61.3584 219.182 62.1714 219.824 62.8088C220.466 63.4463 221.283 63.8796 222.172 64.0542C223.061 64.2287 223.982 64.1367 224.818 63.7897C225.655 63.4426 226.37 62.8562 226.872 62.1043C227.375 61.3524 227.644 60.4687 227.644 59.5648C227.644 58.9618 227.524 58.3648 227.292 57.8081C227.06 57.2513 226.72 56.7458 226.292 56.3206C225.863 55.8954 225.355 55.5589 224.796 55.3304C224.236 55.1019 223.638 54.9859 223.033 54.9892Z" fill="#24071D"/>
<path d="M260.056 244.434H259.908C259.75 244.393 259.614 244.292 259.53 244.153C259.445 244.013 259.419 243.846 259.456 243.688C264.387 224.008 262.439 197.964 262.423 197.702C262.412 197.54 262.465 197.38 262.571 197.257C262.677 197.135 262.828 197.059 262.99 197.046C263.153 197.037 263.312 197.09 263.436 197.196C263.56 197.301 263.639 197.45 263.656 197.612C263.656 197.874 265.587 224.098 260.656 243.983C260.62 244.113 260.541 244.228 260.433 244.31C260.324 244.392 260.192 244.435 260.056 244.434Z" fill="#FBE1CA"/>
<path d="M294.211 265.516C294.055 265.516 293.905 265.457 293.792 265.35C293.679 265.243 293.611 265.097 293.603 264.942C293.077 257.742 287.916 239.981 287.85 239.809C287.806 239.652 287.826 239.485 287.904 239.343C287.982 239.2 288.113 239.094 288.269 239.046C288.347 239.023 288.428 239.015 288.509 239.023C288.59 239.031 288.668 239.056 288.74 239.095C288.811 239.134 288.874 239.186 288.924 239.25C288.974 239.313 289.012 239.386 289.033 239.465C289.247 240.194 294.285 257.505 294.786 264.885C294.793 264.965 294.783 265.047 294.759 265.124C294.734 265.201 294.694 265.273 294.641 265.334C294.588 265.396 294.524 265.447 294.451 265.484C294.379 265.52 294.3 265.543 294.219 265.549L294.211 265.516Z" fill="#FBE1CA"/>
<path d="M255.758 160.523C255.614 160.523 255.474 160.472 255.364 160.379C255.254 160.286 255.181 160.157 255.158 160.015C253.876 152.364 244.828 135.538 244.737 135.366C244.667 135.223 244.656 135.059 244.704 134.907C244.753 134.756 244.859 134.63 244.999 134.554C245.139 134.479 245.303 134.461 245.457 134.504C245.61 134.546 245.741 134.647 245.822 134.783C246.2 135.48 255.059 151.954 256.366 159.81C256.38 159.889 256.378 159.97 256.361 160.049C256.343 160.127 256.31 160.202 256.263 160.267C256.217 160.333 256.157 160.389 256.089 160.431C256.021 160.474 255.944 160.502 255.865 160.515L255.758 160.523Z" fill="#FBE1CA"/>
<path d="M256.966 305.622C256.851 305.624 256.738 305.592 256.64 305.531C256.542 305.47 256.464 305.382 256.416 305.278L250.663 293.371C250.592 293.225 250.583 293.056 250.637 292.902C250.691 292.748 250.803 292.622 250.95 292.551C251.023 292.515 251.102 292.494 251.183 292.489C251.264 292.484 251.345 292.495 251.422 292.522C251.499 292.549 251.569 292.591 251.629 292.645C251.689 292.699 251.738 292.765 251.772 292.838L257.525 304.737C257.593 304.884 257.602 305.052 257.548 305.205C257.494 305.358 257.383 305.484 257.237 305.557C257.153 305.598 257.06 305.621 256.966 305.622Z" fill="#FBE1CA"/>
<!--<path d="M399.782 370.943H50.0158C49.8523 370.943 49.6955 370.879 49.5799 370.763C49.4644 370.648 49.3994 370.491 49.3994 370.328C49.3994 370.165 49.4644 370.009 49.5799 369.894C49.6955 369.778 49.8523 369.713 50.0158 369.713H399.782C399.945 369.713 400.102 369.778 400.217 369.894C400.333 370.009 400.398 370.165 400.398 370.328C400.398 370.491 400.333 370.648 400.217 370.763C400.102 370.879 399.945 370.943 399.782 370.943Z" fill="red"/>-->
<path d="M94.5089 340.3C94.3461 340.298 94.1905 340.232 94.0754 340.117C93.9603 340.003 93.8946 339.847 93.8925 339.685C93.7904 334.849 91.7936 330.246 88.33 326.862C84.8665 323.478 80.212 321.583 75.3646 321.583C70.5172 321.583 65.8628 323.478 62.3992 326.862C58.9357 330.246 56.9388 334.849 56.8367 339.685C56.8367 339.848 56.7718 340.004 56.6562 340.12C56.5406 340.235 56.3838 340.3 56.2204 340.3C56.0569 340.3 55.9001 340.235 55.7845 340.12C55.6689 340.004 55.604 339.848 55.604 339.685C55.604 334.456 57.6859 329.441 61.3917 325.743C65.0976 322.045 70.1238 319.968 75.3646 319.968C80.6055 319.968 85.6317 322.045 89.3375 325.743C93.0433 329.441 95.1252 334.456 95.1252 339.685C95.1252 339.848 95.0603 340.004 94.9447 340.12C94.8291 340.235 94.6723 340.3 94.5089 340.3Z" fill="#24071D"/>
<path d="M131.959 369.878C131.796 369.875 131.641 369.81 131.526 369.695C131.411 369.58 131.345 369.425 131.343 369.263C131.341 362.676 129.08 356.287 124.937 351.159C120.795 346.031 115.018 342.47 108.568 341.069C102.117 339.668 95.3803 340.511 89.4759 343.457C83.5714 346.403 78.8546 351.276 76.1084 357.266C76.0388 357.414 75.9136 357.529 75.7598 357.586C75.6061 357.642 75.4361 357.636 75.2866 357.569C75.2124 357.536 75.1456 357.488 75.0901 357.428C75.0345 357.369 74.9914 357.299 74.9631 357.223C74.9348 357.146 74.922 357.065 74.9253 356.984C74.9287 356.903 74.9481 356.823 74.9825 356.749C77.844 350.501 82.7615 345.418 88.9184 342.344C95.0753 339.27 102.101 338.391 108.828 339.851C115.555 341.312 121.579 345.025 125.899 350.374C130.219 355.723 132.575 362.385 132.576 369.254C132.577 369.336 132.562 369.417 132.531 369.492C132.501 369.568 132.455 369.637 132.398 369.695C132.341 369.752 132.272 369.799 132.197 369.83C132.122 369.861 132.041 369.878 131.959 369.878Z" fill="#24071D"/>
<path d="M370.763 357.315C370.683 357.318 370.602 357.306 370.526 357.278C370.45 357.25 370.38 357.207 370.32 357.152C370.261 357.098 370.213 357.032 370.179 356.958C370.145 356.885 370.126 356.805 370.122 356.725C370.119 356.644 370.132 356.563 370.16 356.487C370.188 356.412 370.231 356.342 370.286 356.283C370.34 356.223 370.407 356.175 370.48 356.141C370.554 356.107 370.633 356.088 370.714 356.085C374.502 355.807 378.198 354.788 381.592 353.085C384.985 351.381 388.009 349.028 390.49 346.159C392.972 343.29 394.863 339.961 396.055 336.363C397.248 332.765 397.718 328.967 397.44 325.187C397.161 321.408 396.139 317.72 394.433 314.334C392.726 310.948 390.367 307.931 387.492 305.455C384.616 302.979 381.28 301.092 377.674 299.902C374.067 298.713 370.262 298.243 366.474 298.521C366.389 298.535 366.303 298.531 366.22 298.51C366.137 298.488 366.06 298.45 365.992 298.397C365.925 298.345 365.87 298.278 365.829 298.203C365.789 298.128 365.765 298.045 365.759 297.96C365.753 297.874 365.764 297.789 365.793 297.708C365.821 297.628 365.867 297.554 365.925 297.492C365.984 297.43 366.055 297.381 366.134 297.348C366.213 297.314 366.298 297.298 366.383 297.299C374.359 296.714 382.242 299.315 388.297 304.529C394.351 309.743 398.082 317.143 398.668 325.101C399.255 333.06 396.648 340.925 391.423 346.966C386.197 353.007 378.781 356.73 370.805 357.315H370.763Z" fill="#24071D"/>
<path d="M72.1884 279.021C72.025 279.021 71.8682 278.956 71.7526 278.841C71.637 278.726 71.5721 278.569 71.5721 278.406C71.551 274.511 72.689 270.697 74.842 267.447C76.9949 264.198 80.066 261.659 83.6662 260.152C87.2664 258.645 91.2337 258.238 95.0658 258.983C98.8979 259.728 102.422 261.59 105.193 264.335C105.277 264.45 105.318 264.591 105.31 264.733C105.302 264.876 105.244 265.011 105.147 265.115C105.05 265.22 104.919 265.287 104.778 265.307C104.636 265.326 104.492 265.296 104.371 265.221C101.767 262.668 98.466 260.939 94.8812 260.251C91.2964 259.564 87.588 259.949 84.2217 261.358C80.8554 262.767 77.9813 265.136 75.9603 268.169C73.9393 271.203 72.8615 274.764 72.8623 278.406C72.8627 278.492 72.8451 278.577 72.8106 278.656C72.776 278.734 72.7254 278.805 72.662 278.863C72.5985 278.921 72.5236 278.965 72.442 278.992C72.3605 279.019 72.2741 279.029 72.1884 279.021Z" fill="#24071D"/>
<path d="M41.0907 308.664C40.9272 308.664 40.7704 308.6 40.6548 308.484C40.5392 308.369 40.4743 308.213 40.4743 308.049C40.4581 304.158 41.5985 300.349 43.7513 297.105C45.9041 293.86 48.9727 291.325 52.5691 289.819C56.1656 288.314 60.1285 287.907 63.957 288.649C67.7855 289.39 71.3077 291.248 74.0784 293.986C74.1939 294.102 74.2587 294.258 74.2587 294.421C74.2587 294.584 74.1939 294.74 74.0784 294.856C73.9629 294.971 73.8062 295.035 73.6429 295.035C73.4795 295.035 73.3229 294.971 73.2073 294.856C70.6039 292.302 67.3025 290.574 63.7177 289.886C60.1329 289.199 56.4245 289.584 53.0582 290.993C49.6919 292.402 46.8178 294.771 44.7968 297.804C42.7758 300.838 41.698 304.399 41.6988 308.041C41.701 308.122 41.6869 308.203 41.6573 308.278C41.6277 308.354 41.5833 308.423 41.5266 308.481C41.4699 308.539 41.4021 308.585 41.3272 308.617C41.2524 308.648 41.1719 308.664 41.0907 308.664Z" fill="#24071D"/>
<path d="M399.354 292.264C399.191 292.264 399.034 292.2 398.919 292.084C398.803 291.969 398.738 291.812 398.738 291.649C398.739 288.007 397.661 284.446 395.64 281.413C393.619 278.379 390.745 276.01 387.379 274.601C384.012 273.192 380.304 272.807 376.719 273.495C373.134 274.182 369.833 275.911 367.23 278.464C367.114 278.579 366.957 278.644 366.794 278.644C366.631 278.644 366.474 278.579 366.358 278.464C366.243 278.348 366.178 278.192 366.178 278.029C366.178 277.866 366.243 277.71 366.358 277.595C369.129 274.856 372.651 272.998 376.48 272.257C380.308 271.515 384.271 271.923 387.868 273.428C391.464 274.933 394.533 277.468 396.686 280.713C398.838 283.957 399.979 287.766 399.963 291.658C399.961 291.818 399.896 291.971 399.782 292.084C399.669 292.198 399.515 292.262 399.354 292.264Z" fill="#24071D"/>
<path d="M350.095 279.021C349.931 279.021 349.774 278.957 349.659 278.841C349.543 278.726 349.478 278.569 349.478 278.406C349.479 274.764 348.401 271.203 346.38 268.17C344.359 265.136 341.485 262.767 338.119 261.358C334.753 259.949 331.044 259.564 327.459 260.252C323.874 260.939 320.573 262.668 317.97 265.221C317.854 265.336 317.697 265.401 317.534 265.401C317.371 265.401 317.214 265.336 317.099 265.221C316.985 265.103 316.921 264.946 316.921 264.782C316.921 264.618 316.985 264.461 317.099 264.343C319.87 261.604 323.393 259.747 327.222 259.005C331.051 258.264 335.015 258.672 338.612 260.178C342.209 261.684 345.277 264.221 347.429 267.467C349.581 270.713 350.721 274.523 350.703 278.415C350.703 278.576 350.639 278.73 350.525 278.844C350.411 278.957 350.256 279.021 350.095 279.021Z" fill="#24071D"/>
<path d="M182.082 365.359C181.919 365.357 181.764 365.292 181.649 365.177C181.533 365.062 181.468 364.907 181.466 364.744C181.468 361.101 180.391 357.539 178.371 354.504C176.351 351.47 173.477 349.099 170.11 347.689C166.743 346.28 163.034 345.894 159.449 346.581C155.863 347.268 152.561 348.997 149.957 351.55C149.842 351.666 149.685 351.73 149.522 351.73C149.358 351.73 149.202 351.666 149.086 351.55C148.971 351.435 148.906 351.279 148.906 351.116C148.906 350.953 148.971 350.797 149.086 350.681C151.857 347.942 155.38 346.084 159.209 345.343C163.039 344.602 167.002 345.01 170.599 346.516C174.196 348.022 177.264 350.558 179.417 353.804C181.569 357.051 182.708 360.86 182.69 364.752C182.686 364.912 182.621 365.064 182.507 365.177C182.394 365.29 182.242 365.355 182.082 365.359Z" fill="#24071D"/>
<path d="M139.151 336.323C138.987 336.323 138.83 336.258 138.715 336.143C138.599 336.028 138.534 335.871 138.534 335.708C138.534 332.877 139.371 330.109 140.942 327.751C142.513 325.394 144.747 323.552 147.363 322.457C149.979 321.362 152.862 321.062 155.648 321.596C158.435 322.13 161.001 323.474 163.024 325.458C163.14 325.573 163.205 325.73 163.205 325.893C163.205 326.056 163.14 326.212 163.024 326.327C162.909 326.442 162.752 326.507 162.589 326.507C162.425 326.507 162.269 326.442 162.153 326.327C160.306 324.504 157.959 323.269 155.408 322.776C152.857 322.283 150.217 322.555 147.822 323.558C145.426 324.56 143.381 326.249 141.946 328.41C140.511 330.571 139.75 333.107 139.759 335.7C139.76 335.781 139.745 335.861 139.715 335.936C139.685 336.011 139.64 336.079 139.584 336.137C139.528 336.195 139.46 336.241 139.386 336.273C139.311 336.305 139.231 336.322 139.151 336.323Z" fill="#24071D"/>
<path d="M96.7692 259.489C96.6057 259.489 96.449 259.424 96.3334 259.309C96.2178 259.194 96.1528 259.037 96.1528 258.874C96.1522 256.043 96.9899 253.275 98.5606 250.917C100.131 248.56 102.365 246.718 104.982 245.623C107.598 244.528 110.48 244.228 113.267 244.762C116.053 245.296 118.619 246.64 120.643 248.624C120.753 248.74 120.814 248.893 120.813 249.053C120.812 249.212 120.748 249.365 120.637 249.479C120.525 249.593 120.373 249.659 120.213 249.663C120.053 249.667 119.898 249.609 119.78 249.501C117.933 247.679 115.586 246.443 113.035 245.95C110.484 245.457 107.844 245.729 105.448 246.732C103.053 247.734 101.008 249.423 99.5732 251.584C98.1382 253.745 97.3769 256.282 97.3856 258.874C97.3856 259.037 97.3206 259.194 97.205 259.309C97.0894 259.424 96.9327 259.489 96.7692 259.489Z" fill="#24071D"/>
<path d="M342.813 263.663C342.65 263.661 342.495 263.595 342.38 263.48C342.265 263.366 342.199 263.21 342.197 263.048C342.197 260.216 343.035 257.448 344.606 255.09C346.177 252.731 348.412 250.889 351.028 249.793C353.645 248.697 356.528 248.397 359.315 248.93C362.103 249.463 364.67 250.806 366.695 252.79C366.811 252.905 366.875 253.061 366.875 253.224C366.875 253.387 366.811 253.544 366.695 253.659C366.638 253.717 366.571 253.763 366.496 253.795C366.421 253.826 366.341 253.842 366.26 253.842C366.178 253.842 366.098 253.826 366.023 253.795C365.948 253.763 365.881 253.717 365.824 253.659C363.977 251.833 361.628 250.594 359.075 250.1C356.522 249.606 353.88 249.878 351.482 250.882C349.084 251.886 347.038 253.577 345.604 255.741C344.169 257.905 343.409 260.445 343.421 263.04C343.422 263.12 343.407 263.201 343.378 263.276C343.348 263.351 343.303 263.419 343.247 263.477C343.19 263.535 343.123 263.581 343.048 263.613C342.974 263.645 342.894 263.662 342.813 263.663Z" fill="#24071D"/>
<path d="M348.336 369.877C348.172 369.877 348.016 369.813 347.9 369.697C347.784 369.582 347.719 369.425 347.719 369.262C347.784 365.431 347.084 361.626 345.659 358.068C344.235 354.51 342.115 351.271 339.422 348.539C336.73 345.807 333.52 343.637 329.978 342.156C326.437 340.675 322.635 339.912 318.795 339.912C314.956 339.912 311.154 340.675 307.613 342.156C304.071 343.637 300.861 345.807 298.169 348.539C295.476 351.271 293.356 354.51 291.932 358.068C290.507 361.626 289.807 365.431 289.872 369.262C289.872 369.425 289.807 369.582 289.691 369.697C289.575 369.813 289.419 369.877 289.255 369.877C289.092 369.877 288.935 369.813 288.819 369.697C288.704 369.582 288.639 369.425 288.639 369.262C288.573 365.269 289.304 361.303 290.79 357.594C292.276 353.886 294.486 350.51 297.293 347.662C300.1 344.815 303.447 342.554 307.139 341.01C310.83 339.467 314.793 338.672 318.795 338.672C322.798 338.672 326.761 339.467 330.452 341.01C334.144 342.554 337.491 344.815 340.298 347.662C343.105 350.51 345.315 353.886 346.801 357.594C348.287 361.303 349.018 365.269 348.952 369.262C348.95 369.425 348.884 369.58 348.769 369.695C348.654 369.81 348.499 369.875 348.336 369.877Z" fill="#24071D"/>
<path d="M280.733 369.869C280.57 369.869 280.413 369.804 280.297 369.689C280.182 369.574 280.117 369.417 280.117 369.254C280.117 368.385 280.117 367.549 280.01 366.794C279.485 360.497 276.884 354.551 272.614 349.886C268.571 345.421 263.223 342.338 257.328 341.071C256.424 340.877 255.51 340.73 254.591 340.628C251.901 340.309 249.179 340.367 246.505 340.8C245.547 340.955 244.597 341.161 243.661 341.415C238.111 342.889 233.13 345.987 229.36 350.31C225.59 354.633 223.204 359.983 222.507 365.671C222.511 365.704 222.511 365.737 222.507 365.769C222.442 366.376 222.384 366.983 222.343 367.606C222.302 368.229 222.294 368.721 222.294 369.246C222.294 369.409 222.229 369.566 222.113 369.681C221.998 369.796 221.841 369.861 221.677 369.861C221.514 369.861 221.357 369.796 221.242 369.681C221.126 369.566 221.061 369.409 221.061 369.246C221.061 368.664 221.061 368.073 221.11 367.499C221.16 366.925 221.209 366.212 221.283 365.589C221.278 365.529 221.278 365.469 221.283 365.408C222.018 359.494 224.509 353.934 228.435 349.442C232.361 344.95 237.543 341.733 243.316 340.202C244.295 339.932 245.288 339.716 246.291 339.554C249.077 339.106 251.912 339.045 254.714 339.373C255.675 339.48 256.63 339.636 257.574 339.841C263.879 341.189 269.582 344.523 273.844 349.35C278.105 354.178 280.699 360.245 281.243 366.655C281.309 367.475 281.35 368.344 281.35 369.246C281.351 369.328 281.336 369.408 281.305 369.484C281.275 369.56 281.229 369.628 281.172 369.686C281.115 369.744 281.046 369.79 280.971 369.822C280.896 369.853 280.815 369.869 280.733 369.869Z" fill="#24071D"/>
<path d="M342.624 321.645C342.462 321.643 342.306 321.577 342.191 321.462C342.076 321.348 342.01 321.192 342.008 321.03C341.906 316.294 339.985 311.777 336.642 308.414C333.299 305.05 328.79 303.095 324.044 302.953C319.298 302.811 314.679 304.492 311.14 307.65C307.601 310.808 305.413 315.201 305.026 319.923C305.026 320.3 304.985 320.661 304.985 321.03C304.985 321.193 304.92 321.349 304.805 321.465C304.689 321.58 304.532 321.645 304.369 321.645C304.205 321.645 304.049 321.58 303.933 321.465C303.817 321.349 303.752 321.193 303.752 321.03C303.752 320.628 303.752 320.21 303.794 319.833C303.872 317.248 304.46 314.705 305.524 312.347C306.588 309.989 308.107 307.864 309.995 306.092C311.882 304.32 314.1 302.937 316.524 302.02C318.947 301.104 321.527 300.673 324.117 300.751C326.707 300.83 329.257 301.417 331.619 302.478C333.982 303.54 336.112 305.056 337.888 306.939C339.664 308.822 341.051 311.035 341.969 313.453C342.887 315.871 343.32 318.445 343.241 321.03C343.239 321.192 343.173 321.348 343.058 321.462C342.943 321.577 342.787 321.643 342.624 321.645Z" fill="#24071D"/>
<path d="M109.91 315.823C100.558 305.786 91.1233 310.46 87.0635 311.846C88.4023 309.768 90.3258 308.13 92.5931 307.138C94.8604 306.145 97.3709 305.842 99.8099 306.267C102.249 306.691 104.508 307.825 106.305 309.524C108.102 311.224 109.356 313.415 109.91 315.823Z" fill="#FBE1CA"/>
<path d="M99.3331 267.484C84.3102 264.335 80.6531 273.224 78.0069 276.586C77.984 274.107 78.6976 271.676 80.0575 269.601C81.4174 267.525 83.3627 265.898 85.6482 264.925C87.9337 263.951 90.4569 263.675 92.8997 264.13C95.3424 264.586 97.5953 265.753 99.3742 267.484H99.3331Z" fill="#FBE1CA"/>
<path d="M364.279 256.529C351.952 253.946 348.936 261.236 346.766 264.007C346.752 261.977 347.34 259.988 348.454 258.29C349.569 256.591 351.161 255.259 353.032 254.461C354.902 253.662 356.968 253.432 358.969 253.8C360.97 254.168 362.817 255.117 364.279 256.529Z" fill="#FBE1CA"/>
<path d="M84.0555 328.763C69.2627 324.745 65.3837 334.503 62.7375 337.865C62.7242 335.395 63.4412 332.977 64.7987 330.912C66.1563 328.847 68.094 327.227 70.3695 326.255C72.645 325.284 75.1571 325.004 77.5914 325.45C80.0258 325.896 82.2743 327.048 84.0555 328.763Z" fill="#FBE1CA"/>
<path d="M116.887 321.645C116.724 321.643 116.569 321.577 116.454 321.462C116.339 321.348 116.273 321.192 116.271 321.03C116.272 319.65 116.115 318.274 115.802 316.93C114.778 312.511 112.162 308.622 108.452 306.002C104.742 303.382 100.196 302.215 95.6787 302.721C91.1617 303.227 86.9887 305.372 83.9532 308.748C80.9177 312.123 79.2314 316.495 79.2151 321.03C79.2151 321.193 79.1502 321.349 79.0346 321.465C78.919 321.58 78.7623 321.645 78.5988 321.645C78.4353 321.645 78.2785 321.58 78.163 321.465C78.0474 321.349 77.9824 321.193 77.9824 321.03C77.9824 315.801 80.0643 310.786 83.7702 307.088C87.476 303.39 92.5022 301.313 97.743 301.313C102.984 301.313 108.01 303.39 111.716 307.088C115.422 310.786 117.504 315.801 117.504 321.03C117.502 321.192 117.436 321.348 117.321 321.462C117.206 321.577 117.05 321.643 116.887 321.645Z" fill="#24071D"/>
</svg>
