<svg id="Layer_1" data-name="Layer 1" xmlns="http://www.w3.org/2000/svg" viewBox="0 0 550 500"><defs><style>.cls-1{fill:#24071d;}.cls-2{fill:#195885;}.cls-3{fill:#00487c;}.cls-4{fill:#fff;}.cls-5,.cls-8{opacity:0.26;}.cls-6,.cls-8{fill:#680000;}.cls-7{fill:#0496ff;}.cls-9{fill:#e3eafd;}</style></defs><path class="cls-1" d="M264.9,432.2h-1.33a.75.75,0,0,1,0-1.5h0c5.62,0,11.33-.19,16.9-.69a.77.77,0,0,1,.82.68.75.75,0,0,1-.68.81C275.43,432,270.14,432.2,264.9,432.2Zm-18.28-.95h-.08c-5.64-.59-11.31-1.47-16.86-2.61a.75.75,0,0,1,.3-1.47c5.5,1.13,11.12,2,16.72,2.59a.74.74,0,0,1,.66.82A.75.75,0,0,1,246.62,431.25Zm50.75-2.08a.75.75,0,0,1-.13-1.49c5.52-1.05,11.05-2.38,16.44-4a.75.75,0,0,1,.93.5.76.76,0,0,1-.51.94c-5.43,1.59-11,2.94-16.58,4Zm-84-4.75a.83.83,0,0,1-.22,0c-5.41-1.69-10.8-3.66-16-5.87a.74.74,0,0,1-.39-1,.75.75,0,0,1,1-.4c5.18,2.19,10.52,4.15,15.88,5.81a.75.75,0,0,1-.22,1.47Zm116.55-4.83a.74.74,0,0,1-.69-.46.75.75,0,0,1,.41-1C334.85,416,340,413.65,345,411a.74.74,0,0,1,1,.31.75.75,0,0,1-.31,1c-5,2.64-10.24,5.05-15.49,7.18A.66.66,0,0,1,329.93,419.59ZM182.12,411.2a.73.73,0,0,1-.35-.09c-5-2.71-9.88-5.69-14.57-8.88a.75.75,0,0,1-.2-1,.74.74,0,0,1,1-.2c4.65,3.16,9.51,6.12,14.44,8.8a.75.75,0,0,1,.3,1A.74.74,0,0,1,182.12,411.2ZM360,403.83a.74.74,0,0,1-.63-.34.75.75,0,0,1,.21-1c4.7-3.09,9.3-6.44,13.67-10a.75.75,0,1,1,.94,1.17c-4.41,3.56-9,6.94-13.78,10.05A.71.71,0,0,1,360,403.83ZM154.05,392.14a.74.74,0,0,1-.48-.18c-4.36-3.62-8.59-7.5-12.57-11.54a.75.75,0,0,1,1.07-1.05c4,4,8.14,7.85,12.46,11.44a.76.76,0,0,1,.09,1.06A.74.74,0,0,1,154.05,392.14Zm232.35-9.63a.75.75,0,0,1-.53-1.28c4-3.94,7.87-8.12,11.48-12.43a.76.76,0,0,1,1.06-.1.77.77,0,0,1,.09,1.06c-3.64,4.35-7.53,8.56-11.58,12.54A.73.73,0,0,1,386.4,382.51ZM130.2,368a.74.74,0,0,1-.58-.28c-3.58-4.4-7-9-10.1-13.76a.75.75,0,0,1,1.26-.83c3.09,4.69,6.46,9.28,10,13.64a.76.76,0,0,1-.58,1.23Zm278-11.51a.74.74,0,0,1-.62-1.17c3.17-4.65,6.15-9.5,8.84-14.42a.75.75,0,0,1,1-.3.75.75,0,0,1,.3,1c-2.72,5-5.72,9.86-8.92,14.54A.74.74,0,0,1,408.18,356.48ZM111.49,339.67a.75.75,0,0,1-.66-.4c-2.65-5-5.08-10.22-7.22-15.46a.75.75,0,1,1,1.39-.57c2.12,5.2,4.53,10.36,7.15,15.33a.74.74,0,0,1-.31,1A.73.73,0,0,1,111.49,339.67Zm313-13a.58.58,0,0,1-.29-.06.74.74,0,0,1-.4-1c2.2-5.17,4.17-10.51,5.85-15.87a.75.75,0,0,1,.94-.49.74.74,0,0,1,.49.94c-1.69,5.41-3.68,10.79-5.9,16A.75.75,0,0,1,424.48,326.71ZM98.67,308.24a.76.76,0,0,1-.72-.53c-1.61-5.44-3-11-4-16.58a.76.76,0,0,1,.6-.88.76.76,0,0,1,.88.6c1.06,5.52,2.4,11,4,16.43a.74.74,0,0,1-.5.93A.83.83,0,0,1,98.67,308.24Zm336-13.9-.16,0a.76.76,0,0,1-.58-.89c1.14-5.48,2-11.11,2.63-16.71a.73.73,0,0,1,.82-.66.74.74,0,0,1,.67.82c-.61,5.65-1.5,11.32-2.65,16.86A.76.76,0,0,1,434.64,294.34ZM92.27,274.92a.75.75,0,0,1-.75-.68c-.49-5.33-.74-10.77-.74-16.16v-.88a.76.76,0,0,1,.75-.75h0a.74.74,0,0,1,.74.76v.87c0,5.35.25,10.74.73,16a.75.75,0,0,1-.67.82Zm346-14.32h0a.76.76,0,0,1-.75-.76c0-.58,0-1.17,0-1.75,0-5.64-.27-11.32-.81-16.9a.75.75,0,1,1,1.49-.15c.55,5.63.82,11.36.82,17,0,.59,0,1.18,0,1.78A.74.74,0,0,1,438.26,260.6ZM92.44,241h-.08a.76.76,0,0,1-.67-.83c.58-5.64,1.44-11.32,2.57-16.86a.75.75,0,1,1,1.47.29c-1.12,5.5-2,11.13-2.55,16.73A.74.74,0,0,1,92.44,241ZM435,225.06a.75.75,0,0,1-.73-.6c-1.09-5.52-2.47-11-4.09-16.42a.75.75,0,1,1,1.43-.43c1.64,5.42,3,11,4.13,16.56a.75.75,0,0,1-.59.88ZM99.18,207.73l-.22,0a.75.75,0,0,1-.49-.94c1.67-5.41,3.62-10.81,5.82-16a.75.75,0,0,1,1-.4.76.76,0,0,1,.4,1c-2.17,5.18-4.12,10.53-5.77,15.89A.74.74,0,0,1,99.18,207.73Zm326-15.15a.76.76,0,0,1-.69-.46c-2.15-5.19-4.58-10.34-7.23-15.3a.75.75,0,1,1,1.32-.7c2.67,5,5.13,10.19,7.3,15.42a.76.76,0,0,1-.41,1A.72.72,0,0,1,425.16,192.58ZM112.32,176.44a.8.8,0,0,1-.36-.09.74.74,0,0,1-.3-1c2.7-5,5.67-9.89,8.85-14.59a.75.75,0,0,1,1-.21.76.76,0,0,1,.2,1.05c-3.15,4.66-6.1,9.52-8.77,14.46A.74.74,0,0,1,112.32,176.44Zm296.85-13.79a.75.75,0,0,1-.63-.34c-3.12-4.67-6.51-9.24-10.07-13.59a.74.74,0,0,1,.1-1.05.75.75,0,0,1,1.06.1c3.59,4.39,7,9,10.16,13.71a.75.75,0,0,1-.21,1A.71.71,0,0,1,409.17,162.65ZM131.32,148.32a.78.78,0,0,1-.48-.17.75.75,0,0,1-.1-1.06c3.61-4.36,7.49-8.6,11.51-12.6a.75.75,0,0,1,1.06,0,.75.75,0,0,1,0,1.06c-4,4-7.83,8.16-11.42,12.49A.74.74,0,0,1,131.32,148.32ZM387.65,136.4a.75.75,0,0,1-.53-.22c-4-4-8.18-7.81-12.52-11.38a.76.76,0,0,1-.1-1.06.75.75,0,0,1,1.05-.1c4.38,3.6,8.62,7.46,12.63,11.48a.75.75,0,0,1,0,1.06A.79.79,0,0,1,387.65,136.4Zm-232.24-12a.75.75,0,0,1-.48-1.33c4.4-3.59,9-7,13.74-10.13a.75.75,0,1,1,.83,1.25c-4.68,3.11-9.26,6.49-13.62,10A.78.78,0,0,1,155.41,124.41Zm206-9.59a.83.83,0,0,1-.42-.13c-4.66-3.14-9.53-6.07-14.48-8.74a.75.75,0,0,1-.31-1,.76.76,0,0,1,1-.31c5,2.69,9.91,5.65,14.61,8.81a.74.74,0,0,1,.2,1A.74.74,0,0,1,361.45,114.82Zm-177.77-9.19a.77.77,0,0,1-.67-.4.75.75,0,0,1,.31-1c5-2.67,10.21-5.11,15.45-7.26a.75.75,0,1,1,.57,1.39c-5.19,2.13-10.35,4.55-15.31,7.19A.73.73,0,0,1,183.68,105.63Zm147.88-6.89a.92.92,0,0,1-.28,0A167.8,167.8,0,0,0,315.36,93a.76.76,0,0,1-.5-.94.75.75,0,0,1,.94-.5c5.42,1.65,10.82,3.6,16.05,5.78a.75.75,0,0,1-.29,1.44Zm-116.49-6a.75.75,0,0,1-.22-1.47c5.43-1.62,11-3,16.57-4.08a.75.75,0,1,1,.28,1.47c-5.52,1.08-11,2.44-16.42,4A.76.76,0,0,1,215.07,92.73Zm84-3.89-.15,0c-5.5-1.1-11.13-1.94-16.73-2.5a.75.75,0,1,1,.15-1.49c5.65.56,11.33,1.41,16.87,2.52a.75.75,0,0,1-.14,1.49Zm-50.74-2.6a.74.74,0,0,1-.74-.68.75.75,0,0,1,.67-.82c5.48-.51,11.07-.78,16.6-.78h.45a.75.75,0,0,1,.74.76.74.74,0,0,1-.75.74h-.44c-5.48,0-11,.26-16.45.78Z"/><path class="cls-2" d="M371.48,300.89H172.37V107.65H316.76c24.71,0,44.74,24,44.74,53.54v76.12a205.81,205.81,0,0,0,10,63.58Z"/><path class="cls-1" d="M371.48,301.64H172.37a.75.75,0,0,1-.75-.75V107.65a.75.75,0,0,1,.75-.75H316.76c25.08,0,45.49,24.36,45.49,54.29v76.12a204.33,204.33,0,0,0,9.94,63.35.73.73,0,0,1-.1.67A.77.77,0,0,1,371.48,301.64Zm-198.36-1.5H370.45a205.84,205.84,0,0,1-9.7-62.83V161.19c0-29.11-19.74-52.79-44-52.79H173.12Z"/><path class="cls-3" d="M438.43,198V399.88a17.92,17.92,0,0,1-11.58,16.77c-.29.11-.58.2-.88.3a17.68,17.68,0,0,1-5.43.83H259.89a17.89,17.89,0,0,1-17.9-17.9V198a17.9,17.9,0,0,1,17.9-17.9H420.54A17.68,17.68,0,0,1,426,181c.3.1.59.19.88.3A17.91,17.91,0,0,1,438.43,198Z"/><path class="cls-1" d="M420.54,418.53H259.89a18.67,18.67,0,0,1-18.65-18.65V198a18.67,18.67,0,0,1,18.65-18.65H420.54a18.16,18.16,0,0,1,5.66.88l.91.31A18.75,18.75,0,0,1,439.18,198V399.88a18.77,18.77,0,0,1-12.07,17.47c-.3.12-.6.22-.91.31A18.54,18.54,0,0,1,420.54,418.53ZM259.89,180.87A17.17,17.17,0,0,0,242.74,198V399.88A17.17,17.17,0,0,0,259.89,417H420.54a17.49,17.49,0,0,0,5.21-.79l.84-.29a17.27,17.27,0,0,0,11.09-16.07V198A17.24,17.24,0,0,0,426.58,182l-.84-.28a16.69,16.69,0,0,0-5.2-.81Z"/><rect class="cls-4" x="259.1" y="201.91" width="162.22" height="44.45" rx="7"/><path class="cls-1" d="M414.33,247.11H266.1a7.76,7.76,0,0,1-7.75-7.75V208.91a7.76,7.76,0,0,1,7.75-7.75H414.33a7.76,7.76,0,0,1,7.75,7.75v30.45A7.76,7.76,0,0,1,414.33,247.11ZM266.1,202.66a6.27,6.27,0,0,0-6.25,6.25v30.45a6.26,6.26,0,0,0,6.25,6.25H414.33a6.26,6.26,0,0,0,6.25-6.25V208.91a6.27,6.27,0,0,0-6.25-6.25Z"/><g class="cls-5"><rect class="cls-6" x="271.09" y="266.52" width="29.58" height="26.47" rx="7"/><rect class="cls-6" x="310.45" y="266.52" width="29.58" height="26.47" rx="7"/><rect class="cls-6" x="349.82" y="266.52" width="29.58" height="26.47" rx="7"/><rect class="cls-6" x="389.18" y="266.52" width="29.58" height="26.47" rx="7"/><rect class="cls-6" x="271.09" y="301.84" width="29.58" height="26.47" rx="7"/><rect class="cls-6" x="310.45" y="301.84" width="29.58" height="26.47" rx="7"/><rect class="cls-6" x="349.82" y="301.84" width="29.58" height="26.47" rx="7"/><rect class="cls-6" x="389.18" y="301.84" width="29.58" height="26.47" rx="7"/><rect class="cls-6" x="271.09" y="337.16" width="29.58" height="26.47" rx="7"/><rect class="cls-6" x="310.45" y="337.16" width="29.58" height="26.47" rx="7"/><rect class="cls-6" x="349.82" y="337.16" width="29.58" height="26.47" rx="7"/><rect class="cls-6" x="389.18" y="337.16" width="29.58" height="26.47" rx="7"/><rect class="cls-6" x="271.09" y="372.48" width="29.58" height="26.47" rx="7"/><rect class="cls-6" x="310.45" y="372.48" width="29.58" height="26.47" rx="7"/><rect class="cls-6" x="349.82" y="372.48" width="29.58" height="26.47" rx="7"/><rect class="cls-6" x="389.18" y="372.48" width="29.58" height="26.47" rx="7"/></g><rect class="cls-4" x="266.38" y="262" width="29.58" height="26.47" rx="7"/><path class="cls-1" d="M289,289.22H273.38a7.76,7.76,0,0,1-7.75-7.75V269a7.76,7.76,0,0,1,7.75-7.75H289a7.76,7.76,0,0,1,7.75,7.75v12.47A7.76,7.76,0,0,1,289,289.22Zm-15.58-26.47a6.25,6.25,0,0,0-6.25,6.25v12.47a6.26,6.26,0,0,0,6.25,6.25H289a6.27,6.27,0,0,0,6.25-6.25V269a6.26,6.26,0,0,0-6.25-6.25Z"/><rect class="cls-4" x="305.74" y="262" width="29.58" height="26.47" rx="7"/><path class="cls-1" d="M328.32,289.22H312.74a7.76,7.76,0,0,1-7.75-7.75V269a7.76,7.76,0,0,1,7.75-7.75h15.58a7.76,7.76,0,0,1,7.75,7.75v12.47A7.76,7.76,0,0,1,328.32,289.22Zm-15.58-26.47a6.26,6.26,0,0,0-6.25,6.25v12.47a6.27,6.27,0,0,0,6.25,6.25h15.58a6.26,6.26,0,0,0,6.25-6.25V269a6.25,6.25,0,0,0-6.25-6.25Z"/><rect class="cls-4" x="345.11" y="262" width="29.58" height="26.47" rx="7"/><path class="cls-1" d="M367.68,289.22H352.11a7.76,7.76,0,0,1-7.75-7.75V269a7.76,7.76,0,0,1,7.75-7.75h15.57a7.76,7.76,0,0,1,7.75,7.75v12.47A7.76,7.76,0,0,1,367.68,289.22Zm-15.57-26.47a6.25,6.25,0,0,0-6.25,6.25v12.47a6.26,6.26,0,0,0,6.25,6.25h15.57a6.26,6.26,0,0,0,6.25-6.25V269a6.25,6.25,0,0,0-6.25-6.25Z"/><rect class="cls-4" x="384.47" y="262" width="29.58" height="26.47" rx="7"/><path class="cls-1" d="M407.05,289.22H391.47a7.76,7.76,0,0,1-7.75-7.75V269a7.76,7.76,0,0,1,7.75-7.75h15.58A7.76,7.76,0,0,1,414.8,269v12.47A7.76,7.76,0,0,1,407.05,289.22Zm-15.58-26.47a6.26,6.26,0,0,0-6.25,6.25v12.47a6.27,6.27,0,0,0,6.25,6.25h15.58a6.27,6.27,0,0,0,6.25-6.25V269a6.26,6.26,0,0,0-6.25-6.25Z"/><rect class="cls-4" x="266.38" y="297.32" width="29.58" height="26.47" rx="7"/><path class="cls-1" d="M289,324.54H273.38a7.76,7.76,0,0,1-7.75-7.75V304.32a7.76,7.76,0,0,1,7.75-7.75H289a7.76,7.76,0,0,1,7.75,7.75v12.47A7.76,7.76,0,0,1,289,324.54Zm-15.58-26.47a6.25,6.25,0,0,0-6.25,6.25v12.47a6.26,6.26,0,0,0,6.25,6.25H289a6.27,6.27,0,0,0,6.25-6.25V304.32a6.26,6.26,0,0,0-6.25-6.25Z"/><rect class="cls-4" x="305.74" y="297.32" width="29.58" height="26.47" rx="7"/><path class="cls-1" d="M328.32,324.54H312.74a7.76,7.76,0,0,1-7.75-7.75V304.32a7.76,7.76,0,0,1,7.75-7.75h15.58a7.76,7.76,0,0,1,7.75,7.75v12.47A7.76,7.76,0,0,1,328.32,324.54Zm-15.58-26.47a6.26,6.26,0,0,0-6.25,6.25v12.47a6.27,6.27,0,0,0,6.25,6.25h15.58a6.26,6.26,0,0,0,6.25-6.25V304.32a6.25,6.25,0,0,0-6.25-6.25Z"/><rect class="cls-4" x="345.11" y="297.32" width="29.58" height="26.47" rx="7"/><path class="cls-1" d="M367.68,324.54H352.11a7.76,7.76,0,0,1-7.75-7.75V304.32a7.76,7.76,0,0,1,7.75-7.75h15.57a7.76,7.76,0,0,1,7.75,7.75v12.47A7.76,7.76,0,0,1,367.68,324.54Zm-15.57-26.47a6.25,6.25,0,0,0-6.25,6.25v12.47a6.26,6.26,0,0,0,6.25,6.25h15.57a6.26,6.26,0,0,0,6.25-6.25V304.32a6.25,6.25,0,0,0-6.25-6.25Z"/><rect class="cls-4" x="384.47" y="297.32" width="29.58" height="26.47" rx="7"/><path class="cls-1" d="M407.05,324.54H391.47a7.76,7.76,0,0,1-7.75-7.75V304.32a7.76,7.76,0,0,1,7.75-7.75h15.58a7.76,7.76,0,0,1,7.75,7.75v12.47A7.76,7.76,0,0,1,407.05,324.54Zm-15.58-26.47a6.26,6.26,0,0,0-6.25,6.25v12.47a6.27,6.27,0,0,0,6.25,6.25h15.58a6.27,6.27,0,0,0,6.25-6.25V304.32a6.26,6.26,0,0,0-6.25-6.25Z"/><rect class="cls-4" x="266.38" y="332.64" width="29.58" height="26.47" rx="7"/><path class="cls-1" d="M289,359.86H273.38a7.76,7.76,0,0,1-7.75-7.75V339.64a7.76,7.76,0,0,1,7.75-7.75H289a7.76,7.76,0,0,1,7.75,7.75v12.47A7.76,7.76,0,0,1,289,359.86Zm-15.58-26.47a6.25,6.25,0,0,0-6.25,6.25v12.47a6.26,6.26,0,0,0,6.25,6.25H289a6.27,6.27,0,0,0,6.25-6.25V339.64a6.26,6.26,0,0,0-6.25-6.25Z"/><rect class="cls-4" x="305.74" y="332.64" width="29.58" height="26.47" rx="7"/><path class="cls-1" d="M328.32,359.86H312.74a7.76,7.76,0,0,1-7.75-7.75V339.64a7.76,7.76,0,0,1,7.75-7.75h15.58a7.76,7.76,0,0,1,7.75,7.75v12.47A7.76,7.76,0,0,1,328.32,359.86Zm-15.58-26.47a6.26,6.26,0,0,0-6.25,6.25v12.47a6.27,6.27,0,0,0,6.25,6.25h15.58a6.26,6.26,0,0,0,6.25-6.25V339.64a6.25,6.25,0,0,0-6.25-6.25Z"/><rect class="cls-4" x="345.11" y="332.64" width="29.58" height="26.47" rx="7"/><path class="cls-1" d="M367.68,359.86H352.11a7.76,7.76,0,0,1-7.75-7.75V339.64a7.76,7.76,0,0,1,7.75-7.75h15.57a7.76,7.76,0,0,1,7.75,7.75v12.47A7.76,7.76,0,0,1,367.68,359.86Zm-15.57-26.47a6.25,6.25,0,0,0-6.25,6.25v12.47a6.26,6.26,0,0,0,6.25,6.25h15.57a6.26,6.26,0,0,0,6.25-6.25V339.64a6.25,6.25,0,0,0-6.25-6.25Z"/><rect class="cls-4" x="384.47" y="332.64" width="29.58" height="26.47" rx="7"/><path class="cls-1" d="M407.05,359.86H391.47a7.76,7.76,0,0,1-7.75-7.75V339.64a7.76,7.76,0,0,1,7.75-7.75h15.58a7.76,7.76,0,0,1,7.75,7.75v12.47A7.76,7.76,0,0,1,407.05,359.86Zm-15.58-26.47a6.26,6.26,0,0,0-6.25,6.25v12.47a6.27,6.27,0,0,0,6.25,6.25h15.58a6.27,6.27,0,0,0,6.25-6.25V339.64a6.26,6.26,0,0,0-6.25-6.25Z"/><rect class="cls-4" x="266.38" y="367.96" width="29.58" height="26.47" rx="7"/><path class="cls-1" d="M289,395.18H273.38a7.76,7.76,0,0,1-7.75-7.75V375a7.76,7.76,0,0,1,7.75-7.75H289a7.76,7.76,0,0,1,7.75,7.75v12.47A7.76,7.76,0,0,1,289,395.18Zm-15.58-26.47a6.25,6.25,0,0,0-6.25,6.25v12.47a6.26,6.26,0,0,0,6.25,6.25H289a6.27,6.27,0,0,0,6.25-6.25V375a6.26,6.26,0,0,0-6.25-6.25Z"/><rect class="cls-4" x="305.74" y="367.96" width="29.58" height="26.47" rx="7"/><path class="cls-1" d="M328.32,395.18H312.74a7.76,7.76,0,0,1-7.75-7.75V375a7.76,7.76,0,0,1,7.75-7.75h15.58a7.76,7.76,0,0,1,7.75,7.75v12.47A7.76,7.76,0,0,1,328.32,395.18Zm-15.58-26.47a6.26,6.26,0,0,0-6.25,6.25v12.47a6.27,6.27,0,0,0,6.25,6.25h15.58a6.26,6.26,0,0,0,6.25-6.25V375a6.25,6.25,0,0,0-6.25-6.25Z"/><rect class="cls-4" x="345.11" y="367.96" width="29.58" height="26.47" rx="7"/><path class="cls-1" d="M367.68,395.18H352.11a7.76,7.76,0,0,1-7.75-7.75V375a7.76,7.76,0,0,1,7.75-7.75h15.57a7.76,7.76,0,0,1,7.75,7.75v12.47A7.76,7.76,0,0,1,367.68,395.18Zm-15.57-26.47a6.25,6.25,0,0,0-6.25,6.25v12.47a6.26,6.26,0,0,0,6.25,6.25h15.57a6.26,6.26,0,0,0,6.25-6.25V375a6.25,6.25,0,0,0-6.25-6.25Z"/><rect class="cls-7" x="384.47" y="367.96" width="29.58" height="26.47" rx="7"/><path class="cls-1" d="M407.05,395.18H391.47a7.76,7.76,0,0,1-7.75-7.75V375a7.76,7.76,0,0,1,7.75-7.75h15.58A7.76,7.76,0,0,1,414.8,375v12.47A7.76,7.76,0,0,1,407.05,395.18Zm-15.58-26.47a6.26,6.26,0,0,0-6.25,6.25v12.47a6.27,6.27,0,0,0,6.25,6.25h15.58a6.27,6.27,0,0,0,6.25-6.25V375a6.26,6.26,0,0,0-6.25-6.25Z"/><path class="cls-8" d="M263,406.2H107.57a114.88,114.88,0,0,0,15.66-58.15V161.19c0-29.57,22.24-53.54,49.66-53.54H326.26a165.18,165.18,0,0,0-13.65,65.91v179.1C312.61,382.23,290.38,406.2,263,406.2Z"/><path class="cls-8" d="M437.81,198.44V400a17.86,17.86,0,0,1-11.15,16.73v-235A17.87,17.87,0,0,1,437.81,198.44Z"/><path class="cls-7" d="M247.46,406.2H92.08a114.88,114.88,0,0,0,15.66-58.15V161.19c0-29.57,22.24-53.54,49.66-53.54H310.77a165.18,165.18,0,0,0-13.65,65.91v179.1C297.12,382.23,274.89,406.2,247.46,406.2Z"/><path class="cls-1" d="M247.46,407H92.08a.75.75,0,0,1-.65-.38.72.72,0,0,1,0-.75A114,114,0,0,0,107,348.05V161.19c0-29.93,22.62-54.29,50.41-54.29H310.77a.77.77,0,0,1,.63.34.75.75,0,0,1,.06.71,165.45,165.45,0,0,0-13.59,65.61v179.1C297.87,382.59,275.26,407,247.46,407Zm-154.08-1.5H247.46c27,0,48.91-23.68,48.91-52.79V173.56a167,167,0,0,1,13.26-65.16H157.4c-27,0-48.91,23.68-48.91,52.79V348.05A115.53,115.53,0,0,1,93.38,405.45Z"/><rect class="cls-9" x="127.42" y="160.82" width="152.85" height="25.73"/><rect class="cls-9" x="203.62" y="262.72" width="45.69" height="25.73"/><rect class="cls-2" x="157.56" y="312.88" width="45.69" height="25.73"/><path class="cls-1" d="M159,366.79a.75.75,0,0,1-.75-.75V160.71a.75.75,0,0,1,1.5,0V366A.74.74,0,0,1,159,366.79Z"/><path class="cls-1" d="M204,366.79a.74.74,0,0,1-.75-.75V160.71a.75.75,0,0,1,1.5,0V366A.75.75,0,0,1,204,366.79Z"/><path class="cls-1" d="M249,366.79a.75.75,0,0,1-.75-.75V160.71a.75.75,0,1,1,1.5,0V366A.74.74,0,0,1,249,366.79Z"/><path class="cls-1" d="M280.36,161.83H127.55a.75.75,0,1,1,0-1.5H280.36a.75.75,0,0,1,0,1.5Z"/><path class="cls-1" d="M280.36,187.3H127.55a.75.75,0,0,1,0-1.5H280.36a.75.75,0,0,1,0,1.5Z"/><path class="cls-1" d="M280.36,212.77H127.55a.75.75,0,1,1,0-1.5H280.36a.75.75,0,0,1,0,1.5Z"/><path class="cls-1" d="M280.36,238.24H127.55a.75.75,0,0,1,0-1.5H280.36a.75.75,0,0,1,0,1.5Z"/><path class="cls-1" d="M280.36,263.71H127.55a.75.75,0,0,1,0-1.5H280.36a.75.75,0,0,1,0,1.5Z"/><path class="cls-1" d="M280.36,289.17H127.55a.75.75,0,0,1,0-1.5H280.36a.75.75,0,0,1,0,1.5Z"/><path class="cls-1" d="M280.36,314.64H127.55a.75.75,0,0,1,0-1.5H280.36a.75.75,0,0,1,0,1.5Z"/><path class="cls-1" d="M280.36,340.11H127.55a.75.75,0,0,1,0-1.5H280.36a.75.75,0,0,1,0,1.5Z"/><path class="cls-1" d="M280.36,366.79H127.55a.75.75,0,0,1,0-1.5H280.36a.75.75,0,0,1,0,1.5Z"/><path class="cls-9" d="M425.85,357.82a.75.75,0,0,1-.75-.75V319a.75.75,0,1,1,1.5,0v38.12A.74.74,0,0,1,425.85,357.82Z"/><path class="cls-9" d="M426,373.54a.75.75,0,0,1-.75-.75V362.33a.75.75,0,1,1,1.5,0v10.46A.74.74,0,0,1,426,373.54Z"/><path class="cls-9" d="M406.36,389a.76.76,0,0,1-.75-.75V374.33a.75.75,0,0,1,1.5,0v13.92A.75.75,0,0,1,406.36,389Z"/><path class="cls-9" d="M125.56,147.47a.67.67,0,0,1-.24,0,.74.74,0,0,1-.47-1c4-11.68,11.05-17.21,16.29-19.8a26,26,0,0,1,10.58-2.84.75.75,0,0,1,0,1.5c-.18,0-18.18.29-25.45,21.63A.75.75,0,0,1,125.56,147.47Z"/><path class="cls-9" d="M176.65,394.79h-52.3a.75.75,0,1,1,0-1.5h52.3a.75.75,0,1,1,0,1.5Z"/><path class="cls-9" d="M198.5,394.79H185.69a.75.75,0,0,1,0-1.5H198.5a.75.75,0,0,1,0,1.5Z"/><path class="cls-9" d="M351.41,170.1a.75.75,0,0,1-.75-.75v-9.51a47.09,47.09,0,0,0-18.22-37.2c-.92-.71-1.48-1.09-1.49-1.1a.74.74,0,0,1-.21-1,.76.76,0,0,1,1-.21s.59.4,1.58,1.16a48.61,48.61,0,0,1,18.8,38.39v9.51A.76.76,0,0,1,351.41,170.1Z"/><path class="cls-9" d="M413.86,115.49h-1.3v3.1a3,3,0,0,1-5.95,0v-3.1H396.09a3.14,3.14,0,0,1-3.06-3.27,3.54,3.54,0,0,1,.55-1.93l9.34-14.75a5.54,5.54,0,0,1,4.57-2.47c2.56-.42,5.07.75,5.07,3.35v13.83h1.3a2.62,2.62,0,0,1,0,5.24ZM406.61,98.6l-7.54,11.65h7.54Z"/><path class="cls-9" d="M478.78,269.18l-14.19,21.11a3.18,3.18,0,0,1-3.23,1.33,3.09,3.09,0,0,1-2.53-3.58,2.82,2.82,0,0,1,.48-1.12L471.44,269l-12.11-2.19a2.77,2.77,0,0,1-2.18-3.26,2.73,2.73,0,0,1,3.16-2.15l16.52,3a3.12,3.12,0,0,1,2.42,3.65A2.78,2.78,0,0,1,478.78,269.18Z"/><path class="cls-9" d="M80.16,328.18a3.66,3.66,0,0,1-4.25-2.86l-4.17-21.38-3,4.66a2.81,2.81,0,0,1-1.83,1.2,3.08,3.08,0,0,1-3.58-2.41,3,3,0,0,1,.5-2.32l6.29-9.47a4.42,4.42,0,0,1,2.81-1.81,4.27,4.27,0,0,1,5,3.3l5.22,26.82A3.68,3.68,0,0,1,80.16,328.18Z"/><path class="cls-9" d="M72.75,136.83c-5.19,1-9.3-1.93-10.22-6.67a8.79,8.79,0,0,1,17.25-3.36C80.7,131.54,78,135.81,72.75,136.83Zm-.77-4c2.34-.45,3.68-2.51,3.17-5.16-.56-2.85-2.56-4.2-4.9-3.74s-3.7,2.46-3.14,5.31C67.62,131.92,69.69,133.31,72,132.86Zm4.93,21a1.68,1.68,0,0,1-3.17-.28,1.79,1.79,0,0,1,.08-.92l13.94-35.31a1.61,1.61,0,0,1,1.18-1,1.75,1.75,0,0,1,2,1.3,1.63,1.63,0,0,1-.1.86ZM95,151.37a8.34,8.34,0,0,1-10.24-6.73A8.79,8.79,0,0,1,102,141.28C102.91,146,100.16,150.36,95,151.37Zm-.77-4c2.34-.46,3.74-2.48,3.21-5.22s-2.62-4.2-5-3.74-3.68,2.51-3.14,5.31S91.86,147.85,94.2,147.4Z"/><path class="cls-9" d="M180.07,124.31H163.39a.75.75,0,0,1,0-1.5h16.68a.75.75,0,0,1,0,1.5Z"/></svg>