<svg id="Layer_1" data-name="Layer 1" xmlns="http://www.w3.org/2000/svg" viewBox="0 0 550 500"><defs><style>.cls-1,.cls-8{fill:#cecfd1;}.cls-2{fill:#fff;}.cls-3{fill:#24071d;}.cls-4{fill:#0496ff;}.cls-5{fill:#160303;opacity:0.26;}.cls-6{fill:#04b4ff;}.cls-7{fill:#00487c;}.cls-8{opacity:0.4;}</style></defs><path class="cls-1" d="M246,105.52l21.48,129.85a5.27,5.27,0,0,1-4.34,6.06L159.53,258.57a5.27,5.27,0,0,1-6.06-4.34L129.72,110.69a5.28,5.28,0,0,1,4.34-6.06L224,89.76a5.25,5.25,0,0,1,3.92.91l16,11.42A5.33,5.33,0,0,1,246,105.52Z"/><path class="cls-1" d="M224,89.76l2,12.2A5.26,5.26,0,0,0,232,106.3l13.12-2.17"/><path class="cls-2" d="M171.14,154.65,212,250.47a4.17,4.17,0,0,1-2.2,5.47l-76.43,32.61a4.18,4.18,0,0,1-5.47-2.2L82.73,180.43a4.16,4.16,0,0,1,2.2-5.47l66.33-28.3a4.2,4.2,0,0,1,3.19,0l14.4,5.79A4.17,4.17,0,0,1,171.14,154.65Z"/><path class="cls-3" d="M131.74,289.63a5,5,0,0,1-1.83-.35,4.87,4.87,0,0,1-2.69-2.64L82,180.73a4.93,4.93,0,0,1,2.59-6.46L151,146a4.93,4.93,0,0,1,3.77,0l14.4,5.78a4.92,4.92,0,0,1,2.7,2.64l40.87,95.82a4.92,4.92,0,0,1-2.59,6.45l-76.44,32.61A5,5,0,0,1,131.74,289.63Zm21.15-142.55a3.49,3.49,0,0,0-1.34.27l-66.33,28.3a3.43,3.43,0,0,0-1.8,4.49L128.6,286.05a3.43,3.43,0,0,0,4.48,1.81l76.44-32.61a3.43,3.43,0,0,0,1.8-4.49l-40.87-95.82a3.52,3.52,0,0,0-1.87-1.83l-14.41-5.78A3.35,3.35,0,0,0,152.89,147.08Z"/><path class="cls-2" d="M151.26,146.66l3.84,9a4.17,4.17,0,0,0,5.47,2.2l9.68-4.13"/><path class="cls-3" d="M158.94,159a4.93,4.93,0,0,1-4.53-3l-3.84-9a.75.75,0,1,1,1.38-.59l3.84,9a3.39,3.39,0,0,0,1.87,1.83,3.33,3.33,0,0,0,2.61,0l9.68-4.13a.75.75,0,1,1,.59,1.38l-9.68,4.13A5,5,0,0,1,158.94,159Z"/><rect class="cls-3" x="97.27" y="182.24" width="72.49" height="1.5" transform="translate(-61.11 67.09) rotate(-23.11)"/><rect class="cls-3" x="103.41" y="196.63" width="72.49" height="1.5" transform="translate(-66.26 70.66) rotate(-23.11)"/><rect class="cls-3" x="109.55" y="211.02" width="72.49" height="1.5" transform="translate(-71.42 74.22) rotate(-23.11)"/><rect class="cls-3" x="115.69" y="225.4" width="72.49" height="1.5" transform="translate(-76.57 77.78) rotate(-23.11)"/><rect class="cls-3" x="121.82" y="239.79" width="72.49" height="1.5" transform="translate(-81.73 81.35) rotate(-23.11)"/><rect class="cls-3" x="127.96" y="254.18" width="72.49" height="1.5" transform="translate(-86.88 84.91) rotate(-23.11)"/><path class="cls-1" d="M337.49,241.72l49.31-86.18a4,4,0,0,1,5.42-1.48L461,193.39a4,4,0,0,1,1.48,5.42L408,294.08a4,4,0,0,1-5.43,1.48l-59.66-34.13A4,4,0,0,1,341,259l-3.89-14.28A4,4,0,0,1,337.49,241.72Z"/><path class="cls-1" d="M342.86,261.43l4.63-8.1a4,4,0,0,0-1.48-5.42l-8.7-5"/><path class="cls-2" d="M393.67,126.32,373.43,283.1a6.33,6.33,0,0,1-7.09,5.46l-125-16.15a6.33,6.33,0,0,1-5.47-7.08L258.2,92a6.34,6.34,0,0,1,7.09-5.47l108.52,14A6.28,6.28,0,0,1,378,103l14.39,18.65A6.33,6.33,0,0,1,393.67,126.32Z"/><path class="cls-3" d="M367.17,289.36a7,7,0,0,1-.92-.06L241.19,273.15a7.08,7.08,0,0,1-6.11-7.92L257.46,91.94a7.06,7.06,0,0,1,7.92-6.11l108.53,14a7.08,7.08,0,0,1,4.7,2.7L393,121.19a7,7,0,0,1,1.41,5.23L374.17,283.19a7.08,7.08,0,0,1-7,6.17ZM264.46,87.27A5.57,5.57,0,0,0,259,92.13L236.57,265.42a5.58,5.58,0,0,0,4.81,6.25l125.06,16.15a5.58,5.58,0,0,0,6.24-4.82l20.25-156.77a5.54,5.54,0,0,0-1.12-4.12l-14.39-18.65a5.56,5.56,0,0,0-3.7-2.13l-108.53-14A6,6,0,0,0,264.46,87.27Z"/><rect class="cls-1" x="265.07" y="141.35" width="104.4" height="10.89" transform="translate(21.41 -39.42) rotate(7.36)"/><rect class="cls-1" x="267.37" y="123.52" width="104.4" height="10.89" transform="translate(19.15 -39.87) rotate(7.36)"/><rect class="cls-1" x="262.92" y="156.9" width="68.93" height="10.89" transform="translate(23.24 -36.75) rotate(7.36)"/><rect class="cls-1" x="256.55" y="207.36" width="104.4" height="10.89" transform="matrix(0.99, 0.13, -0.13, 0.99, 29.8, -37.79)"/><rect class="cls-1" x="258.85" y="189.53" width="104.4" height="10.89" transform="translate(27.53 -38.23) rotate(7.36)"/><rect class="cls-1" x="254.39" y="222.91" width="68.93" height="10.89" transform="translate(31.62 -35.11) rotate(7.36)"/><path class="cls-2" d="M373.81,100.59l-1.9,14.73a6.32,6.32,0,0,0,5.47,7.08l15.83,2"/><path class="cls-3" d="M393.21,125.2h-.1l-15.83-2a7.09,7.09,0,0,1-6.11-7.93l1.9-14.73a.75.75,0,1,1,1.49.19l-1.91,14.73a5.6,5.6,0,0,0,4.82,6.25l15.83,2a.75.75,0,0,1-.09,1.5Z"/><path class="cls-4" d="M398.57,205.74H241L239,182.05a7,7,0,0,0-7.22-6.68h-83.2a7,7,0,0,0-7.22,6.68l1.91,23.69,11.48,188.79a7,7,0,0,0,7.2,6.3H387.52a7,7,0,0,0,7.2-6.3l11-181.74C406,209,402.72,205.74,398.57,205.74Z"/><path class="cls-3" d="M387.52,401.58H162a7.75,7.75,0,0,1-8-7L142.56,205.78l-1.91-23.67a7.73,7.73,0,0,1,8-7.49h83.2a7.72,7.72,0,0,1,8,7.43L241.64,205H398.57a8.22,8.22,0,0,1,6,2.53,7.09,7.09,0,0,1,2,5.32l-11,181.73A7.75,7.75,0,0,1,387.52,401.58ZM148.62,176.12a6.22,6.22,0,0,0-6.47,5.93l1.91,23.63,11.48,188.8a6.26,6.26,0,0,0,6.45,5.6H387.52a6.25,6.25,0,0,0,6.45-5.6L405,212.75a5.63,5.63,0,0,0-1.56-4.21,6.76,6.76,0,0,0-4.9-2H240.26l-2-24.38a6.23,6.23,0,0,0-6.47-6Z"/><path class="cls-5" d="M405.78,213.55,394.72,395.28a7,7,0,0,1-7.2,6.31H162a7,7,0,0,1-7.21-6.31l-.34-5.66H377.39a7,7,0,0,0,7.21-6.31l10.75-176.82h3.22C402.72,206.49,406,209.72,405.78,213.55Z"/><circle class="cls-4" cx="95.56" cy="134.9" r="3.94"/><circle class="cls-6" cx="440.96" cy="304.98" r="6.02"/><path class="cls-1" d="M112.8,338c0-8.16-5.72-14.76-12.79-14.76,7.07,0,12.79-6.62,12.79-14.77,0,8.15,5.73,14.77,12.79,14.77C118.53,323.28,112.8,329.88,112.8,338Z"/><path class="cls-2" d="M428.78,157.37c0-8.21-5.76-14.86-12.87-14.86,7.11,0,12.87-6.66,12.87-14.87,0,8.21,5.77,14.87,12.88,14.87C434.55,142.51,428.78,149.16,428.78,157.37Z"/><path class="cls-3" d="M429.53,157.37H428c0-7.78-5.44-14.11-12.12-14.11v-1.5c6.68,0,12.12-6.33,12.12-14.12h1.5c0,7.79,5.44,14.12,12.13,14.12v1.5C435,143.26,429.53,149.59,429.53,157.37Zm-9.45-14.86a14.76,14.76,0,0,1,8.7,9.75,14.78,14.78,0,0,1,8.7-9.75,14.81,14.81,0,0,1-8.7-9.75A14.78,14.78,0,0,1,420.08,142.51Z"/><line class="cls-2" x1="78" y1="240.24" x2="84.74" y2="254.67"/><path class="cls-3" d="M84.74,255.42a.74.74,0,0,1-.68-.44l-6.74-14.42a.75.75,0,0,1,1.36-.64l6.74,14.43a.75.75,0,0,1-.37,1A.71.71,0,0,1,84.74,255.42Z"/><line class="cls-2" x1="456.14" y1="268.02" x2="468.8" y2="258.36"/><path class="cls-3" d="M456.15,268.77a.74.74,0,0,1-.6-.3.75.75,0,0,1,.14-1.05l12.65-9.66a.75.75,0,0,1,1.05.14.74.74,0,0,1-.14,1.05l-12.65,9.66A.73.73,0,0,1,456.15,268.77Z"/><path class="cls-1" d="M161.89,324.9a1.5,1.5,0,0,1-1.49-1.4L153.89,219a1.5,1.5,0,0,1,3-.19l6.5,104.55a1.5,1.5,0,0,1-1.4,1.59Z"/><path class="cls-1" d="M164.28,360.36a1.5,1.5,0,0,1-1.5-1.39l-1.61-22.21a1.5,1.5,0,1,1,3-.22l1.62,22.21a1.5,1.5,0,0,1-1.39,1.6Z"/><rect class="cls-3" x="145.3" y="237.84" width="258.91" height="1.49"/><rect class="cls-7" x="334.8" y="321.04" width="96.23" height="93.84" rx="46.92"/><path class="cls-3" d="M384.12,415.63h-2.4a47.67,47.67,0,1,1,0-95.34h2.4a47.67,47.67,0,1,1,0,95.34Zm-2.4-93.84a46.17,46.17,0,1,0,0,92.34h2.4a46.17,46.17,0,1,0,0-92.34Z"/><path class="cls-2" d="M404,372.15H387.81v18.24a4.78,4.78,0,0,1-9.56,0V372.15H362.09a4.28,4.28,0,0,1-4.28-4.51,4.2,4.2,0,0,1,4.28-4.17h16.16V346a4.72,4.72,0,0,1,4.94-4.62,4.65,4.65,0,0,1,4.62,4.62v17.47H404a4.17,4.17,0,0,1,4.17,4.17A4.25,4.25,0,0,1,404,372.15Z"/><path class="cls-8" d="M347.07,362.35a1.32,1.32,0,0,1-.39-.06,1.49,1.49,0,0,1-1.05-1.84c6.92-25.43,30.4-30.67,30.63-30.72a1.5,1.5,0,0,1,.63,2.94h0a40.51,40.51,0,0,0-28.37,28.57A1.5,1.5,0,0,1,347.07,362.35Z"/></svg>