<svg id="Layer_1" data-name="Layer 1" xmlns="http://www.w3.org/2000/svg" viewBox="0 0 550 500"><defs><style>.cls-1{fill:#24071d;}.cls-2{fill:#0796f8;}.cls-3{fill:#fbfaf9;}.cls-4,.cls-9{fill:#680000;}.cls-4,.cls-8{opacity:0.26;}.cls-5{fill:#0496ff;}.cls-6{fill:#fff;}.cls-7{fill:#00487c;}</style></defs><path class="cls-1" d="M404.64,273.39a.75.75,0,0,1-.75-.75c0-2.64-.07-5.32-.22-7.95a.75.75,0,1,1,1.5-.08c.15,2.66.22,5.36.22,8A.75.75,0,0,1,404.64,273.39ZM121,267.56h0a.76.76,0,0,1-.72-.78c.11-2.68.3-5.38.55-8a.75.75,0,1,1,1.49.14c-.25,2.62-.43,5.29-.54,7.94A.76.76,0,0,1,121,267.56Zm282.71-10.13a.74.74,0,0,1-.74-.66c-.3-2.63-.67-5.28-1.11-7.88a.75.75,0,0,1,1.48-.25c.44,2.62.82,5.3,1.12,8a.76.76,0,0,1-.66.83Zm-281.17-5.78h-.11a.76.76,0,0,1-.63-.86c.41-2.64.89-5.3,1.45-7.91a.75.75,0,1,1,1.46.32c-.54,2.57-1,5.21-1.43,7.82A.76.76,0,0,1,122.58,251.65Zm278.5-10a.75.75,0,0,1-.73-.58c-.59-2.57-1.26-5.16-2-7.7a.75.75,0,0,1,.51-.93.75.75,0,0,1,.93.51c.74,2.57,1.42,5.19,2,7.79a.74.74,0,0,1-.56.89A.5.5,0,0,1,401.08,241.67ZM125.9,236a.63.63,0,0,1-.19,0,.75.75,0,0,1-.53-.92c.7-2.57,1.48-5.16,2.33-7.69a.75.75,0,1,1,1.42.47c-.83,2.51-1.61,5.07-2.3,7.61A.76.76,0,0,1,125.9,236Zm270.74-9.69a.76.76,0,0,1-.71-.51c-.87-2.49-1.83-5-2.85-7.43a.75.75,0,1,1,1.38-.58c1,2.47,2,5,2.89,7.52a.77.77,0,0,1-.71,1ZM131,220.85a.66.66,0,0,1-.27-.06.74.74,0,0,1-.42-1c1-2.47,2.05-4.95,3.18-7.37a.76.76,0,0,1,1-.36.75.75,0,0,1,.36,1c-1.11,2.39-2.17,4.84-3.15,7.29A.76.76,0,0,1,131,220.85Zm259.51-9.32a.75.75,0,0,1-.68-.42c-1.15-2.37-2.39-4.75-3.67-7.06a.74.74,0,0,1,.29-1,.76.76,0,0,1,1,.29c1.3,2.33,2.55,4.74,3.71,7.14a.75.75,0,0,1-.34,1A.78.78,0,0,1,390.48,211.53Zm-252.76-5.15a.8.8,0,0,1-.36-.09.74.74,0,0,1-.3-1c1.26-2.35,2.6-4.69,4-7a.77.77,0,0,1,1-.25.75.75,0,0,1,.24,1c-1.37,2.26-2.71,4.58-4,6.9A.75.75,0,0,1,137.72,206.38Zm245-8.83a.77.77,0,0,1-.64-.34c-1.41-2.23-2.91-4.46-4.45-6.61a.75.75,0,0,1,1.22-.87c1.56,2.17,3.07,4.42,4.5,6.67a.76.76,0,0,1-.23,1A.73.73,0,0,1,382.69,197.55Zm-236.64-4.79a.75.75,0,0,1-.42-.14.74.74,0,0,1-.19-1c1.52-2.19,3.12-4.37,4.75-6.47a.76.76,0,0,1,1.06-.14.77.77,0,0,1,.13,1.06c-1.62,2.08-3.2,4.23-4.71,6.4A.73.73,0,0,1,146.05,192.76Zm227.33-8.21a.77.77,0,0,1-.59-.28c-1.65-2.06-3.39-4.1-5.16-6.06a.76.76,0,0,1,.06-1.06.75.75,0,0,1,1.06,0c1.79,2,3.54,4.05,5.21,6.13a.75.75,0,0,1-.11,1A.78.78,0,0,1,373.38,184.55Zm-217.51-4.4a.72.72,0,0,1-.49-.19.74.74,0,0,1-.07-1.05c1.75-2,3.59-4,5.45-5.91a.75.75,0,0,1,1.07,1.05c-1.84,1.88-3.65,3.85-5.39,5.84A.76.76,0,0,1,155.87,180.15Zm206.8-7.48a.79.79,0,0,1-.53-.22c-1.87-1.86-3.82-3.69-5.8-5.44a.75.75,0,0,1,1-1.12c2,1.77,4,3.62,5.86,5.49a.75.75,0,0,1,0,1.06A.74.74,0,0,1,362.67,172.67Zm-195.63-4a.75.75,0,0,1-.5-1.3c2-1.8,4-3.57,6.08-5.26a.75.75,0,1,1,.95,1.16c-2,1.67-4.07,3.42-6,5.21A.74.74,0,0,1,167,168.71Zm183.67-6.65a.76.76,0,0,1-.47-.16c-2.06-1.63-4.21-3.23-6.37-4.75a.75.75,0,1,1,.87-1.23c2.18,1.54,4.34,3.15,6.43,4.81a.74.74,0,0,1-.46,1.33Zm-171.28-3.47a.74.74,0,0,1-.44-1.35c2.16-1.57,4.39-3.1,6.64-4.55a.75.75,0,0,1,1,.22.75.75,0,0,1-.22,1c-2.22,1.43-4.43,3-6.57,4.5A.72.72,0,0,1,179.43,158.59Zm158.21-5.72a.73.73,0,0,1-.4-.11c-2.24-1.4-4.54-2.74-6.86-4a.76.76,0,0,1-.3-1,.75.75,0,0,1,1-.29c2.34,1.27,4.67,2.64,6.94,4.05a.75.75,0,0,1-.4,1.38Zm-144.76-2.94a.75.75,0,0,1-.37-1.41c2.32-1.31,4.71-2.58,7.11-3.77a.75.75,0,0,1,.67,1.35c-2.37,1.17-4.74,2.42-7,3.73A.82.82,0,0,1,192.88,149.93Zm130.75-4.72a.71.71,0,0,1-.32-.07c-2.38-1.13-4.83-2.21-7.27-3.21a.75.75,0,0,1-.41-1,.76.76,0,0,1,1-.42c2.47,1,4.94,2.1,7.34,3.24a.75.75,0,0,1,.36,1A.76.76,0,0,1,323.63,145.21Zm-116.4-2.38a.75.75,0,0,1-.3-1.44c2.46-1,5-2,7.5-2.95a.75.75,0,1,1,.51,1.41c-2.49.9-5,1.88-7.42,2.92A.72.72,0,0,1,207.23,142.83Zm101.61-3.65a.67.67,0,0,1-.24,0c-2.5-.86-5.06-1.65-7.6-2.37a.74.74,0,0,1-.52-.92.76.76,0,0,1,.93-.52c2.56.72,5.15,1.52,7.67,2.39a.75.75,0,0,1,.47.95A.76.76,0,0,1,308.84,139.18Zm-86.56-1.78a.75.75,0,0,1-.21-1.47c2.55-.76,5.17-1.45,7.77-2.07a.74.74,0,0,1,.9.56.75.75,0,0,1-.56.9c-2.57.61-5.16,1.3-7.68,2.05Zm71.17-2.54-.16,0c-2.58-.57-5.21-1.07-7.81-1.49a.75.75,0,0,1,.24-1.48c2.63.43,5.29.93,7.89,1.51a.75.75,0,0,1-.16,1.48Zm-55.61-1.14a.74.74,0,0,1-.74-.62.76.76,0,0,1,.61-.87c2.62-.46,5.3-.86,7.95-1.18a.76.76,0,0,1,.83.66.74.74,0,0,1-.65.83c-2.63.32-5.27.71-7.87,1.17Zm39.83-1.41h-.08c-2.62-.27-5.29-.47-7.93-.6a.75.75,0,0,1,.07-1.5c2.67.13,5.37.34,8,.61a.75.75,0,0,1,.67.83A.76.76,0,0,1,277.67,132.31Zm-24-.49a.75.75,0,0,1-.05-1.5c2.66-.17,5.36-.26,8-.28h0a.75.75,0,0,1,0,1.5c-2.65,0-5.33.11-7.95.28Z"/><rect class="cls-2" x="74.21" y="274.61" width="182.23" height="156.73"/><path class="cls-1" d="M256.44,432.1H74.21a.75.75,0,0,1-.75-.75V274.61a.75.75,0,0,1,.75-.75H256.44a.76.76,0,0,1,.75.75V431.35A.76.76,0,0,1,256.44,432.1ZM75,430.6H255.69V275.36H75Z"/><polygon class="cls-3" points="109.98 309.84 113.9 311.47 116.72 309.62 118.5 311.23 120.85 309.51 123.87 311.77 127.34 308.88 127.38 312.88 127.38 346.05 123.81 343.01 120.85 346.15 117.61 343.44 114.93 346.16 112.68 344.09 110.85 346.37 109.98 309.84"/><polygon class="cls-3" points="124.39 365.77 120.88 368.17 117.75 366.93 116.33 368.87 113.68 367.67 111.18 370.49 107.19 368.37 107.98 372.3 114.74 404.76 117.61 401.07 121.15 403.54 123.77 400.22 126.94 402.34 128.73 399.86 130.98 401.71 124.39 365.77"/><path class="cls-1" d="M119.77,432a.76.76,0,0,1-.75-.75V274.55a.75.75,0,0,1,1.5,0V431.29A.76.76,0,0,1,119.77,432Z"/><rect class="cls-4" x="165.87" y="272.22" width="13.16" height="158.61"/><rect class="cls-5" x="293.31" y="225.22" width="174.78" height="206.8"/><path class="cls-1" d="M468.84,432.77H292.56V224.47H468.84Zm-174.78-1.5H467.34V226H294.06Z"/><path class="cls-5" d="M404.83,113.27a21.53,21.53,0,0,1-43.06,0,21.53,21.53,0,1,1,43.06,0Z"/><path class="cls-1" d="M383.3,135.55a22.29,22.29,0,1,1,17.35-8.31A22.13,22.13,0,0,1,383.3,135.55Zm0-43.05a20.79,20.79,0,0,0-20.78,20.77,20.78,20.78,0,0,0,41.56,0A20.79,20.79,0,0,0,383.3,92.5Z"/><path class="cls-6" d="M400.06,126.77a21.51,21.51,0,0,1-33.52,0,17.45,17.45,0,0,1,16.76-12.58,17.49,17.49,0,0,1,16.76,12.58Z"/><path class="cls-1" d="M383.3,135.55A22.13,22.13,0,0,1,366,127.24a.79.79,0,0,1-.14-.68,18.21,18.21,0,0,1,35,0,.75.75,0,0,1-.13.68A22.15,22.15,0,0,1,383.3,135.55Zm-15.92-8.94a20.76,20.76,0,0,0,31.85,0,16.7,16.7,0,0,0-31.85,0Z"/><circle class="cls-6" cx="383.3" cy="109.71" r="7.87"/><path class="cls-1" d="M383.3,118.33a8.62,8.62,0,1,1,8.62-8.62A8.63,8.63,0,0,1,383.3,118.33Zm0-15.74a7.12,7.12,0,1,0,7.12,7.12A7.13,7.13,0,0,0,383.3,102.59Z"/><rect class="cls-7" x="213.92" y="93.48" width="100.62" height="98.12" rx="49.06"/><path class="cls-1" d="M265.48,192.36H263a49.82,49.82,0,0,1,0-99.63h2.5a49.82,49.82,0,0,1,0,99.63ZM263,94.23a48.32,48.32,0,0,0,0,96.63h2.5a48.32,48.32,0,0,0,0-96.63Z"/><path class="cls-3" d="M226.75,135.86a.64.64,0,0,1-.2,0,.74.74,0,0,1-.52-.92c7.11-26.12,31.17-31.48,31.41-31.53a.75.75,0,0,1,.31,1.46c-.24,0-23.42,5.25-30.29,30.46A.74.74,0,0,1,226.75,135.86Z"/><g class="cls-8"><path class="cls-9" d="M314.24,143a49.32,49.32,0,0,1-49.31,49.31h-2.5a49.33,49.33,0,0,1-36.85-16.56.24.24,0,0,1,0-.32.25.25,0,0,1,.32-.06,48.84,48.84,0,0,0,24.79,6.75h2.5a48.8,48.8,0,0,0,36.49-81.22.24.24,0,0,1,0-.32.25.25,0,0,1,.32-.06A49.53,49.53,0,0,1,314.24,143Z"/></g><path class="cls-5" d="M252.76,169.79a4.13,4.13,0,0,1-2.91-1.2l-20.49-20.24a4.13,4.13,0,1,1,5.81-5.87l17.41,17.2,36.88-41a4.13,4.13,0,0,1,6.14,5.52l-39.77,44.23a4.12,4.12,0,0,1-3,1.36Z"/><path class="cls-1" d="M215.77,79.44a.71.71,0,0,1-.32-.07l-12.77-6a.75.75,0,0,1,.64-1.36l12.77,6a.75.75,0,0,1-.32,1.43Z"/><rect class="cls-5" x="111.49" y="112.52" width="16.04" height="16.04" transform="translate(120.24 -49.2) rotate(45)"/><path class="cls-1" d="M119.51,132.94l-12.4-12.4,12.4-12.4,12.4,12.4Zm-10.28-12.4,10.28,10.28,10.28-10.28-10.28-10.28Z"/><path class="cls-5" d="M66.48,230.69a31.92,31.92,0,0,1-1.59-7.22c-.09-1-.79-5.22.6-5.51.3-.06.87.24,1.17.32.53.14,1.07.24,1.6.37,1.22.3,2.43.64,3.67.88,1.86.36,4.09.47,4.74-1.79a9.58,9.58,0,0,0,0-3.07c0-1-.13-2-.23-2.93s-.21-1.93-.31-2.89a7.85,7.85,0,0,1-.13-2.93c.3-.91,1.09-1.09,1.94-1.24,1.12-.18,2.25-.34,3.37-.49,2.26-.3,4.53-.52,6.81-.7,1.91-.15,1.92-3.15,0-3a91.41,91.41,0,0,0-11.43,1.37,4.68,4.68,0,0,0-3.45,2.9c-.63,1.63-.17,3.54,0,5.22s.35,3.26.43,4.89c0,.51,0,1,.06,1.54s.1.29-.11.39-1.27-.23-1.64-.31c-.55-.12-1.09-.26-1.63-.39-.93-.23-1.86-.44-2.79-.68a9.88,9.88,0,0,0-2.16-.45,3.78,3.78,0,0,0-3.45,2.9c-.64,2.06-.25,4.64,0,6.74a35.38,35.38,0,0,0,1.58,6.88c.62,1.81,3.52,1,2.89-.8Z"/><path class="cls-1" d="M431.2,189.31a.77.77,0,0,1-.67-.4.75.75,0,0,1,.31-1l20.71-11a.75.75,0,0,1,.71,1.33l-20.71,11A.79.79,0,0,1,431.2,189.31Z"/><path class="cls-1" d="M447.05,194.17a.77.77,0,0,1-.67-.4l-11-20.71a.75.75,0,1,1,1.33-.7l11,20.71a.75.75,0,0,1-.31,1A.73.73,0,0,1,447.05,194.17Z"/><rect class="cls-7" x="180" y="225.22" width="187.7" height="206.8"/><path class="cls-1" d="M368.45,432.77H179.25V224.47h189.2Zm-187.7-1.5H367V226H180.75Z"/><polygon class="cls-4" points="368.81 225.94 367.69 227.83 330.87 290.43 180 290.43 180 281.98 140.38 281.98 176.44 226.26 180 226.25 366.76 225.94 368.81 225.94"/><polygon class="cls-3" points="426.62 314.59 428.35 319.29 432.22 320.24 432.25 323.07 435.62 323.73 436.1 328.15 441.38 328.84 437.94 332.08 409.25 358.68 409.01 353.16 403.92 353.12 403.68 348.13 399.17 348 399.15 344.4 395.71 344.64 426.62 314.59"/><path class="cls-5" d="M272.06,401.23a48.61,48.61,0,1,1,48.61-48.61A48.67,48.67,0,0,1,272.06,401.23Zm0-87.22a38.61,38.61,0,1,0,38.61,38.61A38.65,38.65,0,0,0,272.06,314Z"/><path class="cls-5" d="M293.35,374.52a5,5,0,0,1-2.49-.67l-24.54-14.13a5,5,0,0,1-2.5-4.33V326a5,5,0,0,1,10,0V352.5l22,12.68a5,5,0,0,1-2.5,9.34Z"/><rect class="cls-1" x="421.27" y="231.43" width="1.5" height="201.15"/><polygon class="cls-7" points="367.21 225.33 366.76 225.94 325.68 281.98 129.72 281.98 171.26 225.33 367.21 225.33"/><path class="cls-1" d="M326.06,282.73H128.25l42.64-58.15H368.7l-1.33,1.81Zm-194.85-1.5H325.3l40.43-55.15H171.65Z"/><polygon class="cls-4" points="486.35 233.45 468.08 232.59 369.07 227.89 367.69 227.83 390.26 290.1 454.04 290.1 454.04 430.83 467.2 430.83 467.2 290.1 468.08 290.1 468.08 281.98 508.49 281.98 486.35 233.45"/><polygon class="cls-5" points="515.67 281.98 393.75 281.98 369.07 227.89 367.89 225.33 489.82 225.33 515.67 281.98"/><path class="cls-1" d="M516.84,282.73H393.26l-26.53-58.15H490.31Zm-122.61-1.5H514.51l-25.17-55.15H369.06Z"/><polygon class="cls-4" points="515.05 282.29 502.98 282.29 477.13 225.63 489.2 225.63 515.05 282.29"/><path class="cls-3" d="M453.73,361.72A.74.74,0,0,1,453,361V312.09a.75.75,0,1,1,1.5,0V361A.75.75,0,0,1,453.73,361.72Z"/><path class="cls-3" d="M453.73,392.54a.74.74,0,0,1-.75-.75l-.08-19.46a.75.75,0,0,1,.75-.75h0a.75.75,0,0,1,.75.75l.08,19.46a.76.76,0,0,1-.75.75Z"/><path class="cls-3" d="M325.29,269a.75.75,0,0,1-.41-.12.74.74,0,0,1-.21-1l23-34.82a.74.74,0,0,1,1-.21.75.75,0,0,1,.21,1l-23,34.82A.76.76,0,0,1,325.29,269Z"/><path class="cls-3" d="M498.33,273.29a.74.74,0,0,1-.68-.43l-16.08-34.29a.76.76,0,0,1,.37-1,.75.75,0,0,1,1,.37L499,272.22a.74.74,0,0,1-.36,1A.7.7,0,0,1,498.33,273.29Z"/><path class="cls-3" d="M164.6,403.57a.74.74,0,0,1-.75-.75V367.16a.75.75,0,0,1,1.5,0v35.66A.75.75,0,0,1,164.6,403.57Z"/></svg>